<?xml version="1.0" standalone="no"?>
<!DOCTYPE svg PUBLIC "-//W3C//DTD SVG 20010904//EN"
 "http://www.w3.org/TR/2001/REC-SVG-20010904/DTD/svg10.dtd">
<svg version="1.0" xmlns="http://www.w3.org/2000/svg"
 width="437.000000pt" height="274.000000pt" viewBox="0 0 437.000000 274.000000"
 preserveAspectRatio="xMidYMid meet">

<g transform="translate(0.000000,274.000000) scale(0.100000,-0.100000)"
fill="#000000" stroke="none">
<path d="M1953 2675 c-81 -18 -142 -45 -217 -99 -108 -77 -217 -213 -251 -312
-25 -73 -30 -79 -94 -98 -79 -23 -111 -49 -111 -86 0 -27 2 -29 29 -24 23 5
41 -3 100 -48 59 -44 73 -60 82 -95 6 -23 21 -50 32 -62 30 -27 151 -86 241
-116 85 -28 135 -31 221 -10 33 8 63 15 68 15 4 0 7 -103 7 -230 l0 -230 -33
0 c-31 0 -35 4 -48 43 l-13 42 -4 -35 c-5 -49 -15 -55 -45 -28 -20 18 -29 38
-36 87 -14 86 -31 103 -31 30 0 -62 -5 -72 -30 -59 -11 6 -19 26 -23 58 -3 27
-12 64 -21 83 l-14 34 -1 -52 c-1 -29 -5 -53 -11 -53 -17 0 -29 36 -39 121 -6
46 -12 86 -12 89 -3 14 -17 -60 -18 -97 0 -24 -5 -43 -11 -43 -11 0 -13 8 -31
122 -13 79 -29 87 -29 16 0 -21 -4 -38 -9 -38 -13 0 -21 38 -21 100 0 51 -3
57 -28 73 l-29 16 -7 -123 c-7 -147 6 -203 65 -270 82 -93 276 -169 467 -182
l92 -7 0 305 c0 250 -3 308 -14 317 -16 13 -117 0 -194 -25 -59 -19 -95 -18
-181 8 -92 27 -141 69 -141 120 0 19 2 37 4 39 3 2 112 -3 243 -13 131 -9 248
-17 261 -17 l22 -1 0 375 0 375 -62 -1 c-35 0 -91 -7 -125 -14z m102 -360 l0
-310 -35 1 c-19 0 -91 7 -160 15 -135 15 -332 18 -366 5 -17 -6 -30 0 -58 24
-41 37 -37 54 17 63 18 4 68 13 112 21 44 8 143 16 220 17 77 1 154 5 170 9
l30 7 -35 6 c-19 4 -60 8 -90 10 -30 1 -54 6 -53 12 1 5 41 15 89 22 48 7 90
16 93 19 7 7 -265 -3 -343 -13 -43 -5 -49 -4 -43 10 8 22 1 21 -31 -1 -33 -23
-58 -32 -66 -25 -3 3 11 38 31 77 46 89 155 199 246 250 98 55 210 96 252 93
20 -2 20 -9 20 -312z"/>
<path d="M2170 2468 l0 -226 48 -6 c88 -12 147 -29 206 -58 73 -37 189 -152
206 -205 7 -21 17 -44 23 -51 14 -18 21 -181 9 -222 -48 -158 -131 -249 -283
-311 -39 -16 -99 -32 -134 -35 l-65 -7 0 -90 0 -90 80 6 c83 7 140 27 140 51
0 8 9 39 21 69 27 69 43 74 122 36 33 -16 66 -29 73 -29 18 0 144 119 144 136
0 8 -14 40 -30 71 -43 80 -38 93 35 114 33 9 72 20 87 23 23 5 28 14 38 59 6
28 10 74 8 102 l-3 49 -77 24 c-95 28 -104 44 -56 104 18 24 41 51 51 60 24
25 21 47 -11 99 -53 82 -56 83 -151 54 -82 -24 -84 -24 -110 -6 -64 45 -206
101 -256 101 -15 0 -25 7 -28 23 -9 32 -6 286 2 291 9 6 71 -15 126 -43 90
-44 208 -178 241 -271 13 -38 39 -49 66 -28 15 11 15 18 4 49 -23 67 -70 133
-147 209 -98 96 -208 153 -324 166 l-55 7 0 -225z"/>
<path d="M2180 2116 l0 -63 52 -7 c74 -10 110 -28 166 -83 87 -84 104 -199 43
-295 -48 -75 -126 -122 -219 -131 l-37 -4 -3 -68 -3 -68 66 6 c82 8 192 58
257 116 30 27 59 70 84 119 34 70 37 84 37 158 -1 71 -5 88 -36 150 -35 69
-92 132 -157 171 -52 32 -154 63 -205 63 l-45 0 0 -64z"/>
<path d="M55 1058 c28 -17 87 -56 133 -85 l82 -53 0 -192 -1 -193 -131 -82
-132 -83 442 0 c243 0 442 2 442 4 0 5 -177 119 -219 140 -31 17 -32 19 -29
74 l3 57 95 3 c192 6 220 -10 300 -174 l51 -104 252 0 c279 0 268 -4 147 63
-55 31 -69 45 -93 90 -40 76 -98 131 -170 160 -68 28 -68 28 43 51 91 20 147
50 178 96 28 42 23 88 -14 137 -28 36 -125 88 -199 104 -33 8 -248 13 -640 16
l-590 4 50 -33z m983 -125 c37 -27 43 -90 11 -119 -19 -17 -39 -19 -215 -22
l-194 -3 0 79 c0 43 3 82 8 86 4 5 87 6 185 4 158 -4 181 -7 205 -25z"/>
<path d="M2870 1086 c0 -2 56 -39 125 -82 l125 -77 -2 -200 -3 -201 -124 -75
-124 -76 569 -3 c692 -3 781 5 870 82 46 40 56 103 25 153 -27 43 -128 91
-235 111 -47 9 -86 19 -86 23 0 3 36 13 79 22 147 29 222 87 207 159 -9 48
-41 82 -101 112 -108 53 -155 56 -766 56 -307 0 -559 -2 -559 -4z m1024 -147
c26 -20 36 -69 18 -95 -23 -35 -125 -44 -384 -35 -28 1 -28 1 -28 76 l0 75
184 0 c170 0 185 -1 210 -21z m13 -291 c31 -15 46 -63 30 -96 -22 -46 -47 -52
-249 -52 l-188 0 0 83 0 82 192 -3 c116 -2 202 -7 215 -14z"/>
<path d="M2063 979 c-30 -12 -65 -35 -84 -56 -30 -35 -31 -39 -26 -104 l6 -66
-44 -6 c-67 -10 -163 -45 -212 -78 -51 -36 -73 -74 -73 -128 0 -76 73 -130
227 -168 105 -26 394 -23 486 4 68 21 69 21 123 2 38 -14 80 -19 146 -19 96 1
155 15 189 46 44 40 49 144 8 185 -27 27 -36 24 -43 -16 -12 -61 -69 -81 -142
-50 l-36 15 18 27 c10 16 28 46 41 69 16 28 45 55 100 90 l78 49 -204 3 c-112
1 -206 1 -208 -2 -2 -2 19 -26 48 -53 l52 -50 -22 -36 c-22 -37 -23 -37 -53
-21 -42 22 -147 97 -148 106 0 4 17 16 39 27 55 29 91 75 91 118 0 29 -8 44
-38 72 -21 20 -57 42 -79 49 -62 19 -179 14 -240 -9z m201 -90 c13 -19 13 -26
1 -48 -7 -15 -25 -33 -40 -41 -25 -13 -28 -13 -46 10 -30 39 -35 71 -14 87 29
21 81 16 99 -8z m-198 -250 c16 -17 64 -58 107 -92 42 -33 77 -64 77 -68 0
-10 -40 -19 -93 -19 -87 0 -168 51 -186 118 -23 81 38 121 95 61z"/>
<path d="M532 177 c-24 -25 -30 -84 -12 -117 23 -43 110 -45 137 -3 13 19 12
22 -6 28 -13 4 -27 0 -37 -9 -8 -9 -19 -16 -23 -16 -33 0 -43 83 -12 100 13 7
22 7 26 0 10 -16 55 -12 55 5 0 39 -94 48 -128 12z"/>
<path d="M715 175 c-33 -32 -33 -84 -2 -119 32 -36 94 -39 127 -6 29 29 28 99
-3 128 -33 31 -90 30 -122 -3z m95 -59 c0 -40 -24 -65 -48 -49 -23 14 -27 66
-7 87 25 25 55 4 55 -38z"/>
<path d="M894 187 c-3 -8 -4 -45 -2 -83 3 -62 5 -69 25 -72 19 -3 22 2 25 40
l3 43 29 -42 c20 -31 36 -43 53 -43 23 0 24 1 21 83 -3 74 -5 82 -23 82 -16 0
-21 -8 -25 -45 -4 -36 -7 -41 -13 -24 -19 53 -80 93 -93 61z"/>
<path d="M1102 188 c-7 -7 -12 -24 -12 -38 0 -27 18 -41 68 -55 30 -9 29 -35
-2 -35 -14 0 -28 4 -31 10 -8 13 -45 13 -45 1 0 -41 102 -57 135 -21 27 30 13
65 -35 84 -22 9 -40 20 -40 26 0 13 27 13 35 0 9 -15 45 -12 45 3 0 24 -23 37
-65 37 -23 0 -46 -5 -53 -12z"/>
<path d="M1267 194 c-4 -4 -7 -33 -7 -65 0 -76 19 -100 80 -101 63 -1 82 25
78 106 -3 53 -6 61 -23 61 -17 0 -20 -8 -23 -45 -4 -77 -10 -92 -35 -88 -19 3
-23 10 -27 68 -4 48 -9 66 -20 68 -9 1 -19 0 -23 -4z"/>
<path d="M1454 187 c-3 -8 -4 -45 -2 -83 l3 -69 65 0 c53 0 65 3 68 17 3 13
-6 17 -39 20 l-42 3 -1 60 c-1 54 -3 60 -24 63 -12 2 -24 -3 -28 -11z"/>
<path d="M1590 180 c0 -15 6 -20 25 -20 24 0 25 -2 25 -65 0 -63 1 -65 25 -65
24 0 25 2 25 64 0 63 1 65 28 68 16 2 27 9 27 18 0 12 -17 16 -77 18 -73 3
-78 1 -78 -18z"/>
<path d="M1782 177 c-28 -30 -30 -95 -4 -127 25 -31 95 -32 125 -1 32 31 31
106 -2 132 -33 27 -92 25 -119 -4z m84 -33 c24 -35 9 -79 -26 -79 -22 0 -25 5
-28 38 -3 36 10 67 29 67 5 0 16 -12 25 -26z"/>
<path d="M1968 194 c-5 -4 -8 -43 -8 -86 0 -77 0 -78 25 -78 21 0 25 5 25 30
0 17 4 30 9 30 6 0 18 -13 28 -30 11 -19 25 -30 40 -30 27 0 29 16 8 47 -13
19 -13 25 2 52 17 29 17 31 1 47 -18 18 -117 32 -130 18z m87 -49 c0 -5 -10
-11 -22 -13 -16 -2 -23 2 -23 13 0 11 7 15 23 13 12 -2 22 -7 22 -13z"/>
<path d="M2147 194 c-4 -4 -7 -43 -7 -86 l0 -78 71 0 c62 0 70 2 67 18 -2 12
-15 18 -46 20 -28 2 -42 8 -42 18 0 10 12 14 40 14 53 0 56 27 3 32 -56 5 -55
28 2 28 39 0 46 3 43 18 -3 13 -15 18 -64 20 -33 2 -63 0 -67 -4z"/>
<path d="M2326 187 c-31 -23 -17 -59 32 -82 23 -11 42 -25 42 -32 0 -15 -36
-17 -45 -3 -7 12 -55 13 -55 2 0 -21 39 -42 78 -42 46 0 72 20 72 54 0 27 -13
39 -54 53 -17 5 -32 15 -34 21 -4 14 24 16 33 2 9 -15 45 -12 45 3 0 35 -76
51 -114 24z"/>
<path d="M2567 194 c-4 -4 -7 -43 -7 -86 l0 -78 65 0 c58 0 65 2 65 20 0 17
-7 20 -40 20 l-39 0 -3 62 c-2 47 -7 64 -18 66 -9 1 -19 0 -23 -4z"/>
<path d="M2720 116 c0 -85 0 -86 25 -86 26 0 26 0 23 82 -3 77 -5 83 -25 86
-22 3 -23 1 -23 -82z"/>
<path d="M2808 128 c-4 -83 -1 -98 18 -98 14 0 19 23 15 67 -3 35 17 36 24 1
12 -60 16 -68 35 -68 13 0 21 13 31 53 l14 52 5 -50 c4 -37 9 -51 23 -53 15
-3 17 6 17 83 l0 86 -32 -3 c-27 -3 -33 -8 -41 -38 -13 -52 -24 -56 -32 -13
-7 41 -18 53 -52 53 -20 0 -22 -6 -25 -72z"/>
<path d="M3034 187 c-3 -8 -4 -45 -2 -83 3 -63 5 -69 26 -72 21 -3 22 -1 22
82 0 80 -1 86 -20 86 -11 0 -23 -6 -26 -13z"/>
<path d="M3117 194 c-15 -16 -6 -34 18 -34 23 0 24 -4 27 -62 3 -56 5 -63 25
-66 20 -3 22 1 25 59 3 58 5 64 28 69 14 3 25 12 25 20 0 12 -17 16 -70 18
-39 1 -74 0 -78 -4z"/>
<path d="M3323 188 c-6 -7 -20 -38 -31 -68 -11 -30 -23 -63 -27 -72 -6 -14 -2
-18 18 -18 14 0 27 7 31 15 7 19 50 19 66 0 16 -19 50 -20 50 -1 0 18 -40 127
-53 144 -5 6 -17 12 -27 12 -10 0 -22 -6 -27 -12z m37 -68 c0 -11 -7 -20 -15
-20 -17 0 -18 2 -9 24 9 23 24 20 24 -4z"/>
<path d="M3468 194 c-5 -4 -8 -43 -8 -86 l0 -78 53 0 c66 0 97 26 97 82 0 53
-27 80 -86 85 -27 3 -52 1 -56 -3z m81 -48 c20 -24 10 -70 -16 -74 -21 -3 -23
1 -23 42 0 48 16 60 39 32z"/>
<path d="M3677 193 c-9 -14 -57 -145 -57 -154 0 -15 37 -10 50 6 16 19 59 19
66 0 6 -15 54 -22 54 -7 0 4 -13 41 -29 82 -24 64 -32 75 -54 78 -14 2 -27 -1
-30 -5z m41 -76 c2 -10 -3 -17 -12 -17 -10 0 -16 9 -16 21 0 24 23 21 28 -4z"/>
</g>
</svg>
