<?xml version="1.0" encoding="utf-8"?>
<!-- Generator: Adobe Illustrator 16.0.0, SVG Export Plug-In . SVG Version: 6.00 Build 0)  -->
<!DOCTYPE svg PUBLIC "-//W3C//DTD SVG 1.1//EN" "http://www.w3.org/Graphics/SVG/1.1/DTD/svg11.dtd">
<svg version="1.1" id="Capa_1" xmlns="http://www.w3.org/2000/svg" xmlns:xlink="http://www.w3.org/1999/xlink" x="0px" y="0px"
	 width="512px" height="512px" viewBox="0 0 512 512" enable-background="new 0 0 512 512" xml:space="preserve">
<g id="Capa_1_1_" display="none">
	<g display="inline" opacity="0.2">
		<polyline fill="none" stroke="#808080" stroke-width="0.953" stroke-miterlimit="10" points="509.751,-1.976 473.258,19.093 
			436.767,-1.976 400.275,19.093 363.782,-1.976 327.292,19.093 290.801,-1.976 254.31,19.093 217.816,-1.976 181.325,19.093 
			144.834,-1.976 108.344,19.093 71.85,-1.976 35.359,19.093 -1.13,-1.976 		"/>
		<polyline fill="none" stroke="#808080" stroke-width="0.953" stroke-miterlimit="10" points="509.751,250.846 473.258,271.914 
			436.767,250.846 400.275,271.914 363.782,250.846 327.292,271.914 290.801,250.846 254.31,271.914 217.816,250.846 
			181.325,271.914 144.834,250.846 108.344,271.914 71.85,250.846 35.359,271.914 -1.13,250.846 		"/>
		<polyline fill="none" stroke="#808080" stroke-width="0.953" stroke-miterlimit="10" points="509.751,124.436 473.258,145.503 
			436.767,124.436 400.275,145.503 363.782,124.436 327.292,145.503 290.801,124.436 254.31,145.503 217.816,124.436 
			181.325,145.503 144.834,124.436 108.344,145.503 71.85,124.436 35.359,145.503 -1.13,124.436 		"/>
		<polyline fill="none" stroke="#808080" stroke-width="0.953" stroke-miterlimit="10" points="509.751,377.258 473.258,398.324 
			436.767,377.258 400.275,398.324 363.782,377.258 327.292,398.324 290.801,377.258 254.31,398.324 217.816,377.258 
			181.325,398.324 144.834,377.258 108.344,398.324 71.85,377.258 35.359,398.324 -1.13,377.258 		"/>
		<polyline fill="none" stroke="#808080" stroke-width="0.953" stroke-miterlimit="10" points="509.751,40.162 473.258,61.229 
			436.767,40.162 400.275,61.229 363.782,40.162 327.292,61.229 290.801,40.162 254.31,61.229 217.816,40.162 181.325,61.229 
			144.834,40.162 108.344,61.229 71.85,40.162 35.359,61.229 -1.13,40.162 		"/>
		<polyline fill="none" stroke="#808080" stroke-width="0.953" stroke-miterlimit="10" points="509.751,292.982 473.258,314.051 
			436.767,292.982 400.275,314.051 363.782,292.982 327.292,314.051 290.801,292.982 254.31,314.051 217.816,292.982 
			181.325,314.051 144.834,292.982 108.344,314.051 71.85,292.982 35.359,314.051 -1.13,292.982 		"/>
		<polyline fill="none" stroke="#808080" stroke-width="0.953" stroke-miterlimit="10" points="509.751,166.572 473.258,187.641 
			436.767,166.572 400.275,187.641 363.782,166.572 327.292,187.641 290.801,166.572 254.31,187.641 217.816,166.572 
			181.325,187.641 144.834,166.572 108.344,187.641 71.85,166.572 35.359,187.641 -1.13,166.572 		"/>
		<polyline fill="none" stroke="#808080" stroke-width="0.953" stroke-miterlimit="10" points="509.751,419.393 473.258,440.461 
			436.767,419.393 400.275,440.461 363.782,419.393 327.292,440.461 290.801,419.393 254.31,440.461 217.816,419.393 
			181.325,440.461 144.834,419.393 108.344,440.461 71.85,419.393 35.359,440.461 -1.13,419.393 		"/>
		<polyline fill="none" stroke="#808080" stroke-width="0.953" stroke-miterlimit="10" points="509.751,82.298 473.258,103.367 
			436.767,82.298 400.275,103.367 363.782,82.298 327.292,103.367 290.801,82.298 254.31,103.367 217.816,82.298 181.325,103.367 
			144.834,82.298 108.344,103.367 71.85,82.298 35.359,103.367 -1.13,82.298 		"/>
		<polyline fill="none" stroke="#808080" stroke-width="0.953" stroke-miterlimit="10" points="509.751,335.119 473.258,356.188 
			436.767,335.119 400.275,356.188 363.782,335.119 327.292,356.188 290.801,335.119 254.31,356.188 217.816,335.119 
			181.325,356.188 144.834,335.119 108.344,356.188 71.85,335.119 35.359,356.188 -1.13,335.119 		"/>
		<polyline fill="none" stroke="#808080" stroke-width="0.953" stroke-miterlimit="10" points="509.751,208.708 473.258,229.776 
			436.767,208.708 400.275,229.776 363.782,208.708 327.292,229.776 290.801,208.708 254.31,229.776 217.816,208.708 
			181.325,229.776 144.834,208.708 108.344,229.776 71.85,208.708 35.359,229.776 -1.13,208.708 		"/>
		<polyline fill="none" stroke="#808080" stroke-width="0.953" stroke-miterlimit="10" points="509.751,461.531 473.258,482.598 
			436.767,461.531 400.275,482.598 363.782,461.531 327.292,482.598 290.801,461.531 254.31,482.598 217.816,461.531 
			181.325,482.598 144.834,461.531 108.344,482.598 71.85,461.531 35.359,482.598 -1.13,461.531 		"/>
		<polyline fill="none" stroke="#808080" stroke-width="0.953" stroke-miterlimit="10" points="-1.132,40.162 35.359,19.092 
			71.85,40.162 108.342,19.092 144.834,40.162 181.325,19.092 217.816,40.162 254.31,19.092 290.801,40.162 327.29,19.092 
			363.782,40.162 400.275,19.092 436.767,40.162 473.258,19.092 509.749,40.162 		"/>
		<polyline fill="none" stroke="#808080" stroke-width="0.953" stroke-miterlimit="10" points="-1.132,292.982 35.359,271.912 
			71.85,292.982 108.342,271.912 144.834,292.982 181.325,271.912 217.816,292.982 254.31,271.912 290.801,292.982 327.29,271.912 
			363.782,292.982 400.275,271.912 436.767,292.982 473.258,271.912 509.749,292.982 		"/>
		<polyline fill="none" stroke="#808080" stroke-width="0.953" stroke-miterlimit="10" points="-1.132,166.572 35.359,145.502 
			71.85,166.572 108.342,145.502 144.834,166.572 181.325,145.502 217.816,166.572 254.31,145.502 290.801,166.572 327.29,145.502 
			363.782,166.572 400.275,145.502 436.767,166.572 473.258,145.502 509.749,166.572 		"/>
		<polyline fill="none" stroke="#808080" stroke-width="0.953" stroke-miterlimit="10" points="-1.132,419.393 35.359,398.322 
			71.85,419.393 108.342,398.322 144.834,419.393 181.325,398.322 217.816,419.393 254.31,398.322 290.801,419.393 327.29,398.322 
			363.782,419.393 400.275,398.322 436.767,419.393 473.258,398.322 509.749,419.393 		"/>
		<polyline fill="none" stroke="#808080" stroke-width="0.953" stroke-miterlimit="10" points="-1.132,82.298 35.359,61.228 
			71.85,82.298 108.342,61.228 144.834,82.298 181.325,61.228 217.816,82.298 254.31,61.228 290.801,82.298 327.29,61.228 
			363.782,82.298 400.275,61.228 436.767,82.298 473.258,61.228 509.749,82.298 		"/>
		<polyline fill="none" stroke="#808080" stroke-width="0.953" stroke-miterlimit="10" points="-1.132,335.119 35.359,314.049 
			71.85,335.119 108.342,314.049 144.834,335.119 181.325,314.049 217.816,335.119 254.31,314.049 290.801,335.119 327.29,314.049 
			363.782,335.119 400.275,314.049 436.767,335.119 473.258,314.049 509.749,335.119 		"/>
		<polyline fill="none" stroke="#808080" stroke-width="0.953" stroke-miterlimit="10" points="-1.132,208.708 35.359,187.64 
			71.85,208.708 108.342,187.64 144.834,208.708 181.325,187.64 217.816,208.708 254.31,187.64 290.801,208.708 327.29,187.64 
			363.782,208.708 400.275,187.64 436.767,208.708 473.258,187.64 509.749,208.708 		"/>
		<polyline fill="none" stroke="#808080" stroke-width="0.953" stroke-miterlimit="10" points="-1.132,461.531 35.359,440.459 
			71.85,461.531 108.342,440.459 144.834,461.531 181.325,440.459 217.816,461.531 254.31,440.459 290.801,461.531 327.29,440.459 
			363.782,461.531 400.275,440.459 436.767,461.531 473.258,440.459 509.749,461.531 		"/>
		<polyline fill="none" stroke="#808080" stroke-width="0.953" stroke-miterlimit="10" points="-1.132,124.436 35.359,103.366 
			71.85,124.436 108.342,103.366 144.834,124.436 181.325,103.366 217.816,124.436 254.31,103.366 290.801,124.436 327.29,103.366 
			363.782,124.436 400.275,103.366 436.767,124.436 473.258,103.366 509.749,124.436 		"/>
		<polyline fill="none" stroke="#808080" stroke-width="0.953" stroke-miterlimit="10" points="-1.132,377.258 35.359,356.186 
			71.85,377.258 108.342,356.186 144.834,377.258 181.325,356.186 217.816,377.258 254.31,356.186 290.801,377.258 327.29,356.186 
			363.782,377.258 400.275,356.186 436.767,377.258 473.258,356.186 509.749,377.258 		"/>
		<polyline fill="none" stroke="#808080" stroke-width="0.953" stroke-miterlimit="10" points="-1.132,250.846 35.359,229.775 
			71.85,250.846 108.342,229.775 144.834,250.846 181.325,229.775 217.816,250.846 254.31,229.775 290.801,250.846 327.29,229.775 
			363.782,250.846 400.275,229.775 436.767,250.846 473.258,229.775 509.749,250.846 		"/>
		<polyline fill="none" stroke="#808080" stroke-width="0.953" stroke-miterlimit="10" points="-1.132,503.666 35.359,482.596 
			71.85,503.666 108.342,482.596 144.834,503.666 181.325,482.596 217.816,503.666 254.31,482.596 290.801,503.666 327.29,482.596 
			363.782,503.666 400.275,482.596 436.767,503.666 473.258,482.596 509.749,503.666 		"/>
		
			<rect x="-1.134" y="-1.977" fill="none" stroke="#808080" stroke-width="0.953" stroke-miterlimit="10" width="510.883" height="505.641"/>
		
			<line fill="none" stroke="#808080" stroke-width="0.953" stroke-miterlimit="10" x1="35.359" y1="-1.976" x2="35.359" y2="503.666"/>
		
			<line fill="none" stroke="#808080" stroke-width="0.953" stroke-miterlimit="10" x1="71.85" y1="-1.976" x2="71.85" y2="503.666"/>
		
			<line fill="none" stroke="#808080" stroke-width="0.953" stroke-miterlimit="10" x1="108.342" y1="-1.976" x2="108.342" y2="503.666"/>
		
			<line fill="none" stroke="#808080" stroke-width="0.953" stroke-miterlimit="10" x1="144.834" y1="-1.976" x2="144.834" y2="503.666"/>
		
			<line fill="none" stroke="#808080" stroke-width="0.953" stroke-miterlimit="10" x1="181.325" y1="-1.976" x2="181.325" y2="503.666"/>
		
			<line fill="none" stroke="#808080" stroke-width="0.953" stroke-miterlimit="10" x1="217.816" y1="-1.976" x2="217.816" y2="503.666"/>
		
			<line fill="none" stroke="#808080" stroke-width="0.953" stroke-miterlimit="10" x1="254.308" y1="-1.976" x2="254.308" y2="503.666"/>
		
			<line fill="none" stroke="#808080" stroke-width="0.953" stroke-miterlimit="10" x1="290.799" y1="-1.976" x2="290.799" y2="503.666"/>
		
			<line fill="none" stroke="#808080" stroke-width="0.953" stroke-miterlimit="10" x1="327.292" y1="-1.976" x2="327.292" y2="503.666"/>
		
			<line fill="none" stroke="#808080" stroke-width="0.953" stroke-miterlimit="10" x1="363.782" y1="-1.976" x2="363.782" y2="503.666"/>
		
			<line fill="none" stroke="#808080" stroke-width="0.953" stroke-miterlimit="10" x1="400.273" y1="-1.976" x2="400.273" y2="503.666"/>
		
			<line fill="none" stroke="#808080" stroke-width="0.953" stroke-miterlimit="10" x1="436.765" y1="-1.976" x2="436.765" y2="503.666"/>
		
			<line fill="none" stroke="#808080" stroke-width="0.953" stroke-miterlimit="10" x1="473.256" y1="-1.976" x2="473.256" y2="503.666"/>
	</g>
</g>
<g id="Capa_2">
	<g>
		<g>
			
				<linearGradient id="SVGID_1_" gradientUnits="userSpaceOnUse" x1="331.8018" y1="-33.0215" x2="331.8018" y2="117.7187" gradientTransform="matrix(1 0 0 -1 -50 373)">
				<stop  offset="0" style="stop-color:#EBEBEB"/>
				<stop  offset="1" style="stop-color:#FFFEFF"/>
			</linearGradient>
			<polygon fill="url(#SVGID_1_)" points="357.021,244.993 206.581,158.719 206.581,359.098 357.021,445.371 			"/>
			
				<linearGradient id="SVGID_2_" gradientUnits="userSpaceOnUse" x1="264.8193" y1="232.8027" x2="434.7444" y2="88.5983" gradientTransform="matrix(1 0 0 -1 -50 373)">
				<stop  offset="0" style="stop-color:#13C28F"/>
				<stop  offset="0.9952" style="stop-color:#14764F"/>
			</linearGradient>
			<polygon fill="url(#SVGID_2_)" points="364.343,241.577 357.021,244.993 206.581,158.719 213.901,155.303 			"/>
			
				<linearGradient id="SVGID_3_" gradientUnits="userSpaceOnUse" x1="407.0215" y1="29.5259" x2="414.3428" y2="29.5259" gradientTransform="matrix(1 0 0 -1 -50 373)">
				<stop  offset="0" style="stop-color:#AFAEAE"/>
				<stop  offset="1" style="stop-color:#ADADAD"/>
			</linearGradient>
			<polygon fill="url(#SVGID_3_)" points="357.021,445.371 364.343,441.955 364.343,241.577 357.021,244.993 			"/>
			<g>
				
					<linearGradient id="SVGID_4_" gradientUnits="userSpaceOnUse" x1="314.8975" y1="2857.6699" x2="314.8975" y2="2865.5601" gradientTransform="matrix(1 0.5647 0 -1 -50 2936.0151)">
					<stop  offset="0" style="stop-color:#B8B8B8"/>
					<stop  offset="1" style="stop-color:#FFFEFF"/>
				</linearGradient>
				<path fill="url(#SVGID_4_)" d="M297.57,275.38l-65.345-36.904c-2.455-1.386-4.465-4.529-4.465-6.984l0,0
					c0-2.456,2.01-3.33,4.465-1.943l65.345,36.902c2.455,1.387,4.464,4.529,4.464,6.984l0,0
					C302.034,275.893,300.025,276.768,297.57,275.38z"/>
				
					<linearGradient id="SVGID_5_" gradientUnits="userSpaceOnUse" x1="335.0557" y1="2839.1592" x2="335.0557" y2="2847.0515" gradientTransform="matrix(1 0.5647 0 -1 -50 2936.0151)">
					<stop  offset="0" style="stop-color:#B8B8B8"/>
					<stop  offset="1" style="stop-color:#FFFEFF"/>
				</linearGradient>
				<path fill="url(#SVGID_5_)" d="M337.884,316.654l-105.658-59.67c-2.455-1.386-4.465-4.528-4.465-6.984l0,0
					c0-2.456,2.01-3.33,4.465-1.943l105.658,59.669c2.455,1.387,4.465,4.529,4.465,6.984l0,0
					C342.349,317.168,340.339,318.042,337.884,316.654z"/>
				
					<linearGradient id="SVGID_6_" gradientUnits="userSpaceOnUse" x1="335.0557" y1="2820.6504" x2="335.0557" y2="2828.5432" gradientTransform="matrix(1 0.5647 0 -1 -50 2936.0151)">
					<stop  offset="0" style="stop-color:#B8B8B8"/>
					<stop  offset="1" style="stop-color:#FFFEFF"/>
				</linearGradient>
				<path fill="url(#SVGID_6_)" d="M337.884,335.164l-105.658-59.67c-2.455-1.387-4.465-4.53-4.465-6.984l0,0
					c0-2.455,2.01-3.33,4.465-1.943l105.658,59.67c2.455,1.387,4.465,4.529,4.465,6.986l0,0
					C342.349,335.676,340.339,336.551,337.884,335.164z"/>
				
					<linearGradient id="SVGID_7_" gradientUnits="userSpaceOnUse" x1="335.0557" y1="2802.1406" x2="335.0557" y2="2810.0334" gradientTransform="matrix(1 0.5647 0 -1 -50 2936.0151)">
					<stop  offset="0" style="stop-color:#B8B8B8"/>
					<stop  offset="1" style="stop-color:#FFFEFF"/>
				</linearGradient>
				<path fill="url(#SVGID_7_)" d="M337.884,353.673l-105.658-59.67c-2.455-1.387-4.465-4.53-4.465-6.985l0,0
					c0-2.455,2.01-3.328,4.465-1.941l105.658,59.67c2.455,1.387,4.465,4.529,4.465,6.984l0,0
					C342.349,354.186,340.339,355.061,337.884,353.673z"/>
				
					<linearGradient id="SVGID_8_" gradientUnits="userSpaceOnUse" x1="327.9512" y1="2783.6328" x2="327.9512" y2="2791.5266" gradientTransform="matrix(1 0.5647 0 -1 -50 2936.0151)">
					<stop  offset="0" style="stop-color:#B8B8B8"/>
					<stop  offset="1" style="stop-color:#FFFEFF"/>
				</linearGradient>
				<path fill="url(#SVGID_8_)" d="M323.676,364.157l-91.45-51.646c-2.455-1.388-4.465-4.529-4.465-6.986l0,0
					c0-2.454,2.01-3.328,4.465-1.942l91.45,51.646c2.455,1.387,4.464,4.529,4.464,6.985l0,0
					C328.14,364.67,326.131,365.544,323.676,364.157z"/>
			</g>
		</g>
		
			<linearGradient id="SVGID_9_" gradientUnits="userSpaceOnUse" x1="331.8018" y1="116.2139" x2="331.8018" y2="210.929" gradientTransform="matrix(1 0 0 -1 -50 373)">
			<stop  offset="0" style="stop-color:#13C28F"/>
			<stop  offset="0.9952" style="stop-color:#14764F"/>
		</linearGradient>
		<polygon fill="url(#SVGID_9_)" points="206.581,179.633 357.021,265.907 357.021,244.993 206.581,158.719 		"/>
		
			<linearGradient id="SVGID_10_" gradientUnits="userSpaceOnUse" x1="425.5205" y1="108.3237" x2="393.4762" y2="131.9354" gradientTransform="matrix(1 0 0 -1 -50 373)">
			<stop  offset="0" style="stop-color:#13C28F"/>
			<stop  offset="0.9952" style="stop-color:#14764F"/>
		</linearGradient>
		<polygon fill="url(#SVGID_10_)" points="357.021,244.993 364.343,241.577 364.343,262.49 357.021,265.907 		"/>
	</g>
	<g>
		<g>
			
				<linearGradient id="SVGID_11_" gradientUnits="userSpaceOnUse" x1="280.54" y1="-55.8369" x2="280.54" y2="94.9033" gradientTransform="matrix(1 0 0 -1 -50 373)">
				<stop  offset="0" style="stop-color:#EBEBEB"/>
				<stop  offset="1" style="stop-color:#FFFEFF"/>
			</linearGradient>
			<polygon fill="url(#SVGID_11_)" points="305.761,267.811 155.319,181.535 155.319,381.913 305.761,468.188 			"/>
			
				<linearGradient id="SVGID_12_" gradientUnits="userSpaceOnUse" x1="213.5557" y1="209.9878" x2="383.4818" y2="65.7825" gradientTransform="matrix(1 0 0 -1 -50 373)">
				<stop  offset="0" style="stop-color:#FFAC06"/>
				<stop  offset="1" style="stop-color:#FF460E"/>
			</linearGradient>
			<polygon fill="url(#SVGID_12_)" points="313.081,264.393 305.761,267.811 155.319,181.535 162.641,178.118 			"/>
			
				<linearGradient id="SVGID_13_" gradientUnits="userSpaceOnUse" x1="355.7607" y1="6.71" x2="363.0811" y2="6.71" gradientTransform="matrix(1 0 0 -1 -50 373)">
				<stop  offset="0" style="stop-color:#AFAEAE"/>
				<stop  offset="1" style="stop-color:#ADADAD"/>
			</linearGradient>
			<polygon fill="url(#SVGID_13_)" points="305.761,468.188 313.081,464.77 313.081,264.393 305.761,267.811 			"/>
			<g>
				
					<linearGradient id="SVGID_14_" gradientUnits="userSpaceOnUse" x1="263.6387" y1="2805.9053" x2="263.6387" y2="2813.7979" gradientTransform="matrix(1 0.5647 0 -1 -50 2936.0151)">
					<stop  offset="0" style="stop-color:#B8B8B8"/>
					<stop  offset="1" style="stop-color:#FFFEFF"/>
				</linearGradient>
				<path fill="url(#SVGID_14_)" d="M246.31,298.195l-65.345-36.902c-2.456-1.387-4.464-4.531-4.464-6.986l0,0
					c0-2.456,2.008-3.33,4.464-1.943l65.345,36.901c2.455,1.387,4.465,4.53,4.465,6.986l0,0
					C250.774,298.707,248.765,299.582,246.31,298.195z"/>
				
					<linearGradient id="SVGID_15_" gradientUnits="userSpaceOnUse" x1="283.7949" y1="2787.3965" x2="283.7949" y2="2795.2893" gradientTransform="matrix(1 0.5647 0 -1 -50 2936.0151)">
					<stop  offset="0" style="stop-color:#B8B8B8"/>
					<stop  offset="1" style="stop-color:#FFFEFF"/>
				</linearGradient>
				<path fill="url(#SVGID_15_)" d="M286.624,339.471l-105.659-59.67c-2.456-1.387-4.464-4.529-4.464-6.984l0,0
					c0-2.455,2.008-3.33,4.464-1.942l105.659,59.67c2.454,1.388,4.463,4.529,4.463,6.984l0,0
					C291.087,339.982,289.078,340.857,286.624,339.471z"/>
				
					<linearGradient id="SVGID_16_" gradientUnits="userSpaceOnUse" x1="283.7949" y1="2768.8887" x2="283.7949" y2="2776.7815" gradientTransform="matrix(1 0.5647 0 -1 -50 2936.0151)">
					<stop  offset="0" style="stop-color:#B8B8B8"/>
					<stop  offset="1" style="stop-color:#FFFEFF"/>
				</linearGradient>
				<path fill="url(#SVGID_16_)" d="M286.624,357.979l-105.659-59.67c-2.456-1.387-4.464-4.529-4.464-6.984l0,0
					c0-2.455,2.008-3.329,4.464-1.942l105.659,59.669c2.454,1.387,4.463,4.53,4.463,6.986l0,0
					C291.087,358.492,289.078,359.366,286.624,357.979z"/>
				
					<linearGradient id="SVGID_17_" gradientUnits="userSpaceOnUse" x1="283.7949" y1="2750.3779" x2="283.7949" y2="2758.2717" gradientTransform="matrix(1 0.5647 0 -1 -50 2936.0151)">
					<stop  offset="0" style="stop-color:#B8B8B8"/>
					<stop  offset="1" style="stop-color:#FFFEFF"/>
				</linearGradient>
				<path fill="url(#SVGID_17_)" d="M286.624,376.488l-105.659-59.67c-2.456-1.387-4.464-4.53-4.464-6.985l0,0
					c0-2.455,2.008-3.329,4.464-1.942l105.659,59.67c2.454,1.388,4.463,4.529,4.463,6.984l0,0
					C291.087,377,289.078,377.875,286.624,376.488z"/>
				
					<linearGradient id="SVGID_18_" gradientUnits="userSpaceOnUse" x1="276.6914" y1="2731.8711" x2="276.6914" y2="2739.762" gradientTransform="matrix(1 0.5647 0 -1 -50 2936.0151)">
					<stop  offset="0" style="stop-color:#B8B8B8"/>
					<stop  offset="1" style="stop-color:#FFFEFF"/>
				</linearGradient>
				<path fill="url(#SVGID_18_)" d="M272.415,386.973l-91.45-51.646c-2.456-1.388-4.464-4.53-4.464-6.985l0,0
					c0-2.455,2.008-3.33,4.464-1.941l91.45,51.646c2.455,1.386,4.465,4.529,4.465,6.985l0,0
					C276.88,387.484,274.87,388.359,272.415,386.973z"/>
			</g>
		</g>
		
			<linearGradient id="SVGID_19_" gradientUnits="userSpaceOnUse" x1="280.54" y1="93.3994" x2="280.54" y2="188.1142" gradientTransform="matrix(1 0 0 -1 -50 373)">
			<stop  offset="0" style="stop-color:#FFAC06"/>
			<stop  offset="0.5703" style="stop-color:#FF720B"/>
		</linearGradient>
		<polygon fill="url(#SVGID_19_)" points="155.319,202.448 305.761,288.723 305.761,267.811 155.319,181.535 		"/>
		
			<linearGradient id="SVGID_20_" gradientUnits="userSpaceOnUse" x1="374.2588" y1="85.5098" x2="342.2183" y2="109.1186" gradientTransform="matrix(1 0 0 -1 -50 373)">
			<stop  offset="0" style="stop-color:#FFAC06"/>
			<stop  offset="1" style="stop-color:#FF460E"/>
		</linearGradient>
		<polygon fill="url(#SVGID_20_)" points="305.761,267.811 313.081,264.393 313.081,285.307 305.761,288.723 		"/>
	</g>
	<g>
		<g>
			<g enable-background="new    ">
				
					<linearGradient id="SVGID_21_" gradientUnits="userSpaceOnUse" x1="343.083" y1="234.9692" x2="355.4062" y2="234.9692" gradientTransform="matrix(1 0 0 -1 -50 373)">
					<stop  offset="0" style="stop-color:#FFAC06"/>
					<stop  offset="0.5703" style="stop-color:#FF720B"/>
				</linearGradient>
				<path fill="url(#SVGID_21_)" d="M293.1,130.053c0.006,0.065,0.01,0.129,0.021,0.194c0.011,0.053,0.026,0.104,0.04,0.157
					c0.017,0.062,0.029,0.123,0.053,0.184c0.018,0.05,0.042,0.1,0.062,0.149c0.027,0.064,0.056,0.129,0.09,0.192
					c0.048,0.087,0.099,0.174,0.156,0.259c0.011,0.014,0.021,0.027,0.031,0.042c0.062,0.085,0.129,0.169,0.201,0.251
					c0.014,0.016,0.025,0.032,0.04,0.048c0.079,0.087,0.167,0.171,0.259,0.254c0.059,0.054,0.125,0.104,0.188,0.156
					c0.059,0.045,0.112,0.091,0.174,0.136c0.069,0.051,0.146,0.098,0.22,0.147c0.077,0.05,0.151,0.102,0.234,0.15
					c0.184,0.107,0.38,0.203,0.579,0.294c0.059,0.025,0.116,0.05,0.177,0.075c0.157,0.065,0.316,0.127,0.482,0.183
					c0.06,0.02,0.117,0.042,0.177,0.06c0.104,0.033,0.211,0.062,0.317,0.091c0.078,0.022,0.158,0.045,0.239,0.065
					c0.112,0.027,0.228,0.049,0.341,0.072c0.077,0.016,0.153,0.034,0.23,0.047c0.23,0.041,0.464,0.072,0.699,0.098
					c0.072,0.007,0.146,0.012,0.219,0.018c0.139,0.012,0.275,0.022,0.414,0.028c0.09,0.003,0.179,0.006,0.268,0.006
					c0.111,0.003,0.225,0.003,0.336,0.002c0.094-0.001,0.188-0.003,0.281-0.008c0.104-0.004,0.208-0.009,0.312-0.017
					c0.095-0.006,0.188-0.015,0.283-0.023c0.103-0.01,0.205-0.022,0.308-0.035c0.092-0.012,0.184-0.025,0.274-0.039
					c0.107-0.017,0.217-0.036,0.324-0.056c0.085-0.017,0.17-0.033,0.256-0.052c0.129-0.028,0.256-0.06,0.381-0.094
					c0.07-0.018,0.142-0.036,0.211-0.056c0.226-0.066,0.444-0.14,0.658-0.223c0.105-0.041,0.209-0.086,0.312-0.131
					c0.052-0.023,0.106-0.045,0.157-0.069c0.156-0.074,0.307-0.152,0.451-0.235c1.211-0.7,1.816-1.618,1.814-2.534l0.035,12.812
					c0.004,0.916-0.602,1.835-1.812,2.534c-0.146,0.083-0.297,0.162-0.451,0.235c-0.053,0.024-0.105,0.045-0.158,0.069
					c-0.092,0.041-0.184,0.083-0.277,0.12c-0.01,0.004-0.021,0.008-0.034,0.012c-0.213,0.083-0.433,0.156-0.657,0.222
					c-0.02,0.005-0.035,0.013-0.055,0.018c-0.051,0.015-0.104,0.024-0.156,0.039c-0.125,0.033-0.254,0.065-0.383,0.093
					c-0.033,0.007-0.064,0.018-0.101,0.025c-0.05,0.01-0.103,0.016-0.153,0.026c-0.107,0.021-0.216,0.04-0.324,0.057
					c-0.046,0.007-0.088,0.016-0.132,0.022c-0.047,0.007-0.096,0.01-0.146,0.016c-0.102,0.014-0.203,0.024-0.307,0.035
					c-0.049,0.004-0.096,0.012-0.146,0.016c-0.046,0.004-0.093,0.004-0.138,0.008c-0.104,0.007-0.207,0.013-0.312,0.016
					c-0.052,0.002-0.104,0.007-0.156,0.008c-0.041,0.001-0.083-0.001-0.125,0c-0.111,0.001-0.224,0-0.336-0.002
					c-0.056,0-0.111,0.001-0.167,0c-0.032-0.001-0.065-0.005-0.1-0.007c-0.14-0.006-0.276-0.016-0.414-0.027
					c-0.058-0.005-0.112-0.006-0.168-0.012c-0.019-0.001-0.034-0.005-0.052-0.007c-0.235-0.024-0.469-0.057-0.698-0.097
					c-0.013-0.002-0.023-0.003-0.033-0.004c-0.067-0.013-0.133-0.029-0.199-0.042c-0.112-0.024-0.228-0.046-0.34-0.073
					c-0.082-0.021-0.16-0.043-0.241-0.065c-0.104-0.029-0.212-0.058-0.316-0.091c-0.021-0.006-0.045-0.012-0.066-0.019
					c-0.037-0.013-0.072-0.029-0.109-0.042c-0.164-0.056-0.324-0.117-0.482-0.183c-0.061-0.024-0.116-0.049-0.176-0.075
					c-0.199-0.09-0.396-0.186-0.579-0.293c-0.025-0.015-0.05-0.03-0.075-0.045c-0.057-0.034-0.105-0.07-0.159-0.106
					c-0.073-0.048-0.149-0.097-0.22-0.146c-0.062-0.045-0.115-0.091-0.172-0.137c-0.064-0.052-0.131-0.103-0.188-0.155
					c-0.013-0.011-0.027-0.021-0.039-0.032c-0.078-0.073-0.15-0.147-0.222-0.223c-0.015-0.016-0.026-0.032-0.04-0.048
					c-0.041-0.046-0.083-0.092-0.12-0.139c-0.028-0.037-0.055-0.075-0.082-0.113c-0.01-0.014-0.02-0.027-0.03-0.042
					c-0.047-0.07-0.094-0.141-0.135-0.212c-0.009-0.016-0.014-0.032-0.021-0.047c-0.034-0.063-0.062-0.127-0.091-0.191
					c-0.017-0.038-0.039-0.074-0.051-0.112c-0.007-0.013-0.009-0.025-0.013-0.038c-0.021-0.061-0.036-0.122-0.053-0.183
					c-0.011-0.042-0.027-0.083-0.035-0.125c-0.003-0.011-0.002-0.022-0.004-0.033c-0.013-0.064-0.017-0.129-0.022-0.193
					c-0.003-0.042-0.014-0.084-0.015-0.126c0-0.018,0-0.036,0-0.054l-0.037-12.812C293.084,129.934,293.093,129.994,293.1,130.053z"
					/>
				<g>
					
						<linearGradient id="SVGID_22_" gradientUnits="userSpaceOnUse" x1="-9199.8076" y1="243.1426" x2="-9187.5195" y2="243.1426" gradientTransform="matrix(-1 0 0 -1 -8894.4355 373)">
						<stop  offset="0" style="stop-color:#47C3B9"/>
						<stop  offset="0.9901" style="stop-color:#B8EDFF"/>
					</linearGradient>
					<path fill="url(#SVGID_22_)" d="M294.896,127.341c-2.406,1.389-2.418,3.643-0.026,5.032c2.394,1.391,6.282,1.391,8.688,0.001
						c2.407-1.391,2.42-3.644,0.027-5.034C301.195,125.952,297.305,125.95,294.896,127.341z"/>
				</g>
			</g>
		</g>
		<g>
			<g enable-background="new    ">
				
					<linearGradient id="SVGID_23_" gradientUnits="userSpaceOnUse" x1="375.7979" y1="215.5835" x2="388.1221" y2="215.5835" gradientTransform="matrix(1 0 0 -1 -50 373)">
					<stop  offset="0.0048" style="stop-color:#14764F"/>
					<stop  offset="1" style="stop-color:#13C28F"/>
				</linearGradient>
				<path fill="url(#SVGID_23_)" d="M325.815,149.437c0.006,0.064,0.011,0.128,0.021,0.193c0.009,0.053,0.025,0.105,0.039,0.158
					c0.016,0.061,0.031,0.122,0.054,0.183c0.018,0.051,0.04,0.1,0.062,0.15c0.026,0.064,0.056,0.128,0.09,0.192
					c0.047,0.087,0.098,0.174,0.156,0.26c0.01,0.013,0.021,0.027,0.029,0.041c0.062,0.085,0.129,0.169,0.202,0.252
					c0.015,0.015,0.026,0.031,0.04,0.047c0.079,0.086,0.167,0.171,0.259,0.254c0.06,0.053,0.124,0.104,0.188,0.155
					c0.057,0.046,0.112,0.092,0.173,0.136c0.068,0.05,0.146,0.099,0.22,0.147c0.077,0.051,0.151,0.103,0.235,0.151
					c0.184,0.106,0.379,0.202,0.579,0.293c0.058,0.026,0.117,0.05,0.176,0.075c0.156,0.066,0.317,0.127,0.483,0.183
					c0.059,0.02,0.116,0.042,0.177,0.061c0.104,0.032,0.209,0.061,0.315,0.09c0.081,0.022,0.159,0.045,0.241,0.065
					c0.111,0.027,0.228,0.05,0.342,0.073c0.075,0.015,0.151,0.033,0.229,0.046c0.229,0.041,0.463,0.073,0.698,0.098
					c0.073,0.007,0.146,0.013,0.219,0.019c0.138,0.011,0.276,0.021,0.415,0.027c0.089,0.004,0.177,0.006,0.267,0.007
					c0.111,0.002,0.225,0.003,0.337,0.002c0.094-0.001,0.188-0.004,0.28-0.008c0.104-0.004,0.208-0.009,0.312-0.017
					c0.095-0.007,0.188-0.014,0.283-0.023c0.104-0.01,0.204-0.021,0.308-0.034c0.092-0.012,0.183-0.025,0.274-0.039
					c0.108-0.017,0.218-0.036,0.324-0.057c0.086-0.016,0.171-0.033,0.255-0.052c0.129-0.028,0.257-0.06,0.383-0.093
					c0.068-0.019,0.141-0.036,0.209-0.056c0.227-0.066,0.446-0.14,0.659-0.223c0.105-0.042,0.209-0.086,0.312-0.132
					c0.053-0.023,0.107-0.045,0.158-0.068c0.153-0.074,0.307-0.152,0.451-0.236c1.211-0.699,1.815-1.617,1.813-2.534l0.036,12.812
					c0.003,0.917-0.603,1.835-1.814,2.534c-0.146,0.083-0.296,0.162-0.449,0.235c-0.054,0.024-0.107,0.046-0.158,0.069
					c-0.093,0.041-0.184,0.084-0.277,0.121c-0.012,0.004-0.022,0.007-0.034,0.011c-0.214,0.083-0.434,0.157-0.658,0.223
					c-0.019,0.005-0.034,0.013-0.054,0.018c-0.052,0.015-0.104,0.025-0.157,0.039c-0.125,0.034-0.253,0.065-0.382,0.094
					c-0.033,0.007-0.065,0.018-0.102,0.025c-0.051,0.01-0.103,0.017-0.152,0.026c-0.108,0.021-0.217,0.04-0.326,0.057
					c-0.044,0.007-0.086,0.017-0.13,0.023c-0.048,0.006-0.097,0.01-0.145,0.016c-0.104,0.013-0.204,0.024-0.308,0.034
					c-0.049,0.005-0.098,0.013-0.146,0.017c-0.046,0.003-0.093,0.003-0.139,0.007c-0.104,0.007-0.207,0.013-0.312,0.017
					c-0.053,0.002-0.104,0.007-0.156,0.009c-0.042,0-0.084-0.002-0.125-0.001c-0.112,0.001-0.225,0.001-0.337-0.002
					c-0.056,0-0.11,0.002-0.167,0c-0.034-0.001-0.065-0.005-0.1-0.007c-0.139-0.006-0.276-0.016-0.414-0.027
					c-0.056-0.005-0.112-0.006-0.168-0.011c-0.017-0.002-0.033-0.006-0.052-0.008c-0.234-0.024-0.47-0.057-0.698-0.097
					c-0.011-0.002-0.022-0.003-0.033-0.005c-0.066-0.012-0.132-0.029-0.198-0.042c-0.112-0.023-0.228-0.046-0.341-0.073
					c-0.081-0.02-0.16-0.043-0.24-0.064c-0.106-0.03-0.214-0.058-0.316-0.091c-0.021-0.007-0.046-0.012-0.067-0.02
					c-0.037-0.012-0.07-0.028-0.107-0.041c-0.165-0.057-0.327-0.118-0.483-0.184c-0.06-0.024-0.117-0.048-0.176-0.075
					c-0.2-0.09-0.396-0.186-0.58-0.293c-0.024-0.015-0.05-0.03-0.074-0.044c-0.058-0.035-0.104-0.071-0.16-0.106
					c-0.073-0.049-0.149-0.097-0.22-0.147c-0.062-0.044-0.115-0.091-0.173-0.137c-0.064-0.051-0.129-0.102-0.188-0.155
					c-0.012-0.01-0.025-0.02-0.037-0.031c-0.079-0.073-0.151-0.147-0.222-0.223c-0.015-0.015-0.026-0.031-0.04-0.047
					c-0.042-0.047-0.084-0.093-0.121-0.139c-0.027-0.038-0.055-0.076-0.081-0.114c-0.011-0.014-0.021-0.027-0.029-0.041
					c-0.051-0.07-0.097-0.142-0.137-0.213c-0.009-0.016-0.014-0.032-0.021-0.047c-0.034-0.062-0.062-0.127-0.09-0.19
					c-0.018-0.038-0.038-0.075-0.053-0.112c-0.005-0.013-0.007-0.025-0.012-0.038c-0.021-0.061-0.036-0.122-0.053-0.184
					c-0.01-0.042-0.027-0.083-0.035-0.124c-0.002-0.012-0.002-0.023-0.004-0.034c-0.012-0.064-0.017-0.128-0.021-0.192
					c-0.005-0.042-0.014-0.085-0.015-0.127c-0.001-0.018-0.001-0.036-0.001-0.053l-0.036-12.812
					C325.801,149.316,325.81,149.376,325.815,149.437z"/>
				<g>
					
						<linearGradient id="SVGID_24_" gradientUnits="userSpaceOnUse" x1="-9232.5244" y1="223.7593" x2="-9220.2363" y2="223.7593" gradientTransform="matrix(-1 0 0 -1 -8894.4355 373)">
						<stop  offset="0" style="stop-color:#47C3B9"/>
						<stop  offset="0.9901" style="stop-color:#B8EDFF"/>
					</linearGradient>
					<path fill="url(#SVGID_24_)" d="M327.612,146.724c-2.406,1.39-2.417,3.644-0.025,5.033c2.394,1.39,6.281,1.391,8.688,0
						c2.407-1.39,2.42-3.643,0.027-5.033C333.911,145.334,330.021,145.334,327.612,146.724z"/>
				</g>
			</g>
		</g>
		<g>
			<g enable-background="new    ">
				
					<linearGradient id="SVGID_25_" gradientUnits="userSpaceOnUse" x1="317.1289" y1="249.8086" x2="329.4531" y2="249.8086" gradientTransform="matrix(1 0 0 -1 -50 373)">
					<stop  offset="0" style="stop-color:#C10B06"/>
					<stop  offset="0.5703" style="stop-color:#FF1E0B"/>
				</linearGradient>
				<path fill="url(#SVGID_25_)" d="M267.146,115.215c0.006,0.064,0.012,0.13,0.022,0.193c0.009,0.053,0.026,0.105,0.04,0.158
					c0.016,0.061,0.03,0.123,0.053,0.184c0.019,0.05,0.041,0.099,0.062,0.149c0.027,0.064,0.056,0.128,0.09,0.191
					c0.047,0.088,0.098,0.175,0.157,0.26c0.01,0.014,0.02,0.027,0.03,0.041c0.061,0.085,0.129,0.169,0.201,0.252
					c0.014,0.016,0.025,0.032,0.04,0.047c0.078,0.086,0.167,0.171,0.259,0.254c0.06,0.052,0.123,0.104,0.188,0.155
					c0.057,0.046,0.111,0.093,0.173,0.137c0.069,0.05,0.146,0.098,0.222,0.146c0.076,0.051,0.149,0.103,0.233,0.151
					c0.185,0.107,0.379,0.203,0.579,0.293c0.059,0.026,0.117,0.05,0.176,0.074c0.156,0.066,0.318,0.127,0.483,0.183
					c0.059,0.021,0.116,0.042,0.177,0.061c0.104,0.032,0.21,0.061,0.314,0.09c0.082,0.022,0.16,0.046,0.242,0.065
					c0.111,0.027,0.228,0.05,0.342,0.073c0.076,0.016,0.151,0.033,0.229,0.047c0.229,0.041,0.464,0.073,0.698,0.097
					c0.072,0.008,0.146,0.013,0.22,0.019c0.138,0.011,0.274,0.021,0.414,0.027c0.089,0.004,0.179,0.006,0.267,0.008
					c0.111,0.001,0.226,0.003,0.336,0.001c0.095,0,0.188-0.004,0.281-0.007c0.104-0.004,0.209-0.009,0.312-0.017
					c0.094-0.007,0.188-0.015,0.283-0.024c0.103-0.009,0.205-0.021,0.308-0.034c0.091-0.012,0.183-0.024,0.272-0.039
					c0.109-0.017,0.219-0.037,0.326-0.057c0.086-0.016,0.17-0.033,0.256-0.052c0.129-0.028,0.254-0.06,0.381-0.093
					c0.068-0.019,0.141-0.037,0.209-0.056c0.227-0.066,0.447-0.14,0.66-0.223c0.104-0.042,0.209-0.086,0.311-0.132
					c0.053-0.023,0.107-0.044,0.158-0.069c0.154-0.074,0.307-0.151,0.449-0.235c1.213-0.699,1.817-1.617,1.815-2.534l0.036,12.812
					c0.003,0.916-0.604,1.834-1.814,2.534c-0.146,0.083-0.295,0.161-0.449,0.235c-0.053,0.024-0.106,0.046-0.158,0.068
					c-0.092,0.041-0.184,0.084-0.277,0.122c-0.012,0.004-0.023,0.006-0.033,0.011c-0.215,0.083-0.435,0.157-0.658,0.223
					c-0.02,0.005-0.035,0.013-0.055,0.018c-0.051,0.015-0.104,0.024-0.158,0.038c-0.125,0.034-0.252,0.065-0.381,0.094
					c-0.033,0.008-0.065,0.018-0.102,0.024c-0.05,0.01-0.102,0.017-0.152,0.026c-0.109,0.021-0.217,0.04-0.326,0.057
					c-0.043,0.007-0.086,0.017-0.129,0.023c-0.049,0.007-0.098,0.01-0.146,0.016c-0.103,0.013-0.204,0.025-0.308,0.035
					c-0.049,0.004-0.097,0.012-0.146,0.016c-0.046,0.003-0.092,0.004-0.138,0.007c-0.104,0.008-0.209,0.013-0.312,0.017
					c-0.053,0.002-0.104,0.007-0.156,0.008c-0.043,0.001-0.084,0-0.125,0c-0.111,0.001-0.225,0-0.336-0.002
					c-0.057-0.001-0.111,0.002-0.168,0c-0.033-0.001-0.065-0.006-0.1-0.007c-0.139-0.006-0.275-0.016-0.414-0.028
					c-0.057-0.004-0.111-0.006-0.168-0.011c-0.018-0.001-0.033-0.005-0.051-0.007c-0.235-0.025-0.469-0.058-0.699-0.097
					c-0.011-0.002-0.021-0.002-0.033-0.005c-0.066-0.012-0.132-0.029-0.197-0.042c-0.113-0.023-0.229-0.045-0.34-0.073
					c-0.082-0.02-0.162-0.043-0.242-0.064c-0.106-0.029-0.213-0.058-0.316-0.09c-0.021-0.007-0.045-0.012-0.066-0.02
					c-0.037-0.012-0.072-0.028-0.109-0.041c-0.164-0.057-0.324-0.118-0.482-0.183c-0.061-0.025-0.117-0.049-0.175-0.076
					c-0.2-0.09-0.396-0.187-0.58-0.293c-0.024-0.014-0.05-0.029-0.075-0.044c-0.057-0.034-0.105-0.071-0.158-0.106
					c-0.074-0.049-0.151-0.097-0.221-0.147c-0.062-0.044-0.117-0.091-0.174-0.136c-0.062-0.051-0.129-0.103-0.188-0.156
					c-0.013-0.01-0.026-0.021-0.039-0.031c-0.078-0.073-0.15-0.147-0.221-0.223c-0.015-0.015-0.027-0.031-0.04-0.047
					c-0.041-0.046-0.084-0.092-0.12-0.139c-0.029-0.037-0.055-0.075-0.082-0.112c-0.011-0.015-0.021-0.028-0.029-0.042
					c-0.049-0.071-0.096-0.142-0.135-0.214c-0.011-0.015-0.015-0.031-0.021-0.046c-0.035-0.063-0.062-0.127-0.09-0.191
					c-0.018-0.037-0.039-0.075-0.053-0.112c-0.006-0.013-0.008-0.025-0.012-0.038c-0.021-0.061-0.035-0.122-0.053-0.184
					c-0.012-0.042-0.028-0.082-0.036-0.124c-0.002-0.011-0.002-0.023-0.004-0.034c-0.013-0.063-0.017-0.128-0.021-0.192
					c-0.004-0.042-0.015-0.084-0.016-0.127c-0.001-0.018-0.001-0.036-0.001-0.053l-0.036-12.812
					C267.134,115.096,267.143,115.155,267.146,115.215z"/>
				<g>
					
						<linearGradient id="SVGID_26_" gradientUnits="userSpaceOnUse" x1="-9173.8564" y1="257.9805" x2="-9161.5674" y2="257.9805" gradientTransform="matrix(-1 0 0 -1 -8894.4355 373)">
						<stop  offset="0" style="stop-color:#47C3B9"/>
						<stop  offset="0.9901" style="stop-color:#B8EDFF"/>
					</linearGradient>
					<path fill="url(#SVGID_26_)" d="M268.943,112.502c-2.405,1.39-2.416,3.644-0.024,5.033c2.394,1.39,6.281,1.391,8.687,0.002
						c2.41-1.391,2.422-3.644,0.029-5.034C275.245,111.113,271.354,111.112,268.943,112.502z"/>
				</g>
			</g>
		</g>
		<g>
			<g>
				
					<linearGradient id="SVGID_27_" gradientUnits="userSpaceOnUse" x1="-9175.2754" y1="344.9766" x2="-9123.2109" y2="344.9766" gradientTransform="matrix(-1 0 0 -1 -8894.4355 373)">
					<stop  offset="0" style="stop-color:#FFFFFF"/>
					<stop  offset="1" style="stop-color:#D1D0CF"/>
				</linearGradient>
				<path fill="url(#SVGID_27_)" d="M280.84,18.553c-0.744-0.284-1.477-0.521-2.199-0.737c-0.119-0.035-0.238-0.074-0.357-0.107
					c-0.09-0.025-0.182-0.057-0.271-0.082c-0.598-0.162-1.187-0.292-1.77-0.408c-0.133-0.027-0.266-0.049-0.398-0.074
					c-0.208-0.037-0.42-0.083-0.627-0.115c-0.224-0.034-0.436-0.038-0.658-0.065c-0.414-0.052-0.828-0.097-1.232-0.123
					c-0.146-0.01-0.305-0.039-0.45-0.045c-0.222-0.01-0.429,0.008-0.646,0.006c-0.326-0.004-0.652-0.005-0.974,0.008
					c-0.138,0.006-0.282-0.005-0.421,0.004c-0.243,0.016-0.475,0.059-0.712,0.083c-0.272,0.029-0.547,0.054-0.813,0.096
					c-0.104,0.016-0.213,0.019-0.316,0.037c-0.295,0.051-0.574,0.131-0.861,0.198c-0.219,0.05-0.439,0.092-0.654,0.151
					c-0.059,0.016-0.121,0.024-0.179,0.041c-0.425,0.124-0.831,0.278-1.235,0.436c-0.102,0.039-0.205,0.067-0.306,0.107
					c-0.012,0.005-0.024,0.008-0.036,0.013c-0.51,0.214-1.004,0.455-1.479,0.724c-0.054,0.029-0.106,0.06-0.158,0.09l-5.045,2.932
					c-0.197,0.1-0.403,0.183-0.595,0.29c-0.055,0.031-0.105,0.061-0.158,0.092l-29.511,17.148c0.004-0.001,0.006-0.002,0.009-0.004
					l-0.009,0.004c0.538-0.312,1.098-0.586,1.677-0.827c0.098-0.041,0.202-0.067,0.3-0.106c0.463-0.18,0.933-0.343,1.419-0.478
					c0.214-0.06,0.438-0.101,0.655-0.151c0.388-0.09,0.777-0.174,1.178-0.236c0.268-0.041,0.541-0.067,0.813-0.096
					c0.374-0.039,0.75-0.071,1.135-0.086c0.319-0.014,0.646-0.012,0.972-0.008c0.361,0.003,0.727,0.014,1.098,0.039
					c0.404,0.026,0.817,0.072,1.233,0.123c0.425,0.053,0.85,0.102,1.284,0.181c0.133,0.024,0.266,0.047,0.398,0.074
					c0.67,0.132,1.35,0.294,2.04,0.489c0.119,0.034,0.239,0.072,0.358,0.107c0.725,0.214,1.455,0.453,2.199,0.737l5.738-3.334
					c0.02,0.007,0.039,0.014,0.06,0.022L280.84,18.553z"/>
				
					<linearGradient id="SVGID_28_" gradientUnits="userSpaceOnUse" x1="-9222.2051" y1="350.8291" x2="-9148.2217" y2="350.8291" gradientTransform="matrix(-1 0 0 -1 -8894.4355 373)">
					<stop  offset="0" style="stop-color:#FFFFFF"/>
					<stop  offset="1" style="stop-color:#D1D0CF"/>
				</linearGradient>
				<path fill="url(#SVGID_28_)" d="M327.77,20.62c-0.568-0.653-1.147-1.293-1.736-1.922c-0.197-0.21-0.401-0.411-0.602-0.619
					c-0.395-0.412-0.79-0.826-1.191-1.225c-0.019-0.018-0.035-0.036-0.054-0.054c-0.055-0.055-0.113-0.104-0.17-0.158
					c-0.728-0.715-1.471-1.404-2.223-2.077c-0.207-0.186-0.415-0.37-0.623-0.552c-0.824-0.716-1.656-1.416-2.505-2.076
					c-0.042-0.032-0.083-0.061-0.124-0.093c-0.812-0.629-1.639-1.223-2.471-1.797c-0.223-0.152-0.444-0.303-0.668-0.453
					c-0.879-0.585-1.766-1.151-2.662-1.669c-0.737-0.425-1.467-0.811-2.192-1.177c-0.198-0.1-0.396-0.196-0.595-0.292
					c-0.591-0.287-1.179-0.554-1.762-0.802c-0.104-0.044-0.209-0.099-0.312-0.142c-0.042-0.018-0.082-0.029-0.123-0.046
					c-0.622-0.255-1.238-0.49-1.848-0.7c-0.077-0.026-0.152-0.046-0.229-0.072c-0.533-0.179-1.062-0.342-1.582-0.487
					c-0.057-0.015-0.113-0.036-0.17-0.052c-0.23-0.062-0.455-0.11-0.685-0.166c-0.224-0.054-0.445-0.113-0.665-0.161
					c-0.303-0.066-0.6-0.119-0.896-0.174c-0.207-0.037-0.416-0.08-0.619-0.112c-0.033-0.006-0.068-0.014-0.102-0.019
					c-0.438-0.067-0.865-0.12-1.292-0.162c-0.083-0.009-0.163-0.011-0.246-0.018c-0.313-0.027-0.629-0.054-0.938-0.067
					c-0.041-0.002-0.08,0.002-0.122,0c-0.648-0.025-1.283-0.019-1.905,0.016c-0.05,0.002-0.104-0.002-0.152,0.001
					c-0.096,0.006-0.185,0.024-0.279,0.032c-0.479,0.037-0.949,0.092-1.412,0.165c-0.092,0.015-0.188,0.017-0.276,0.032
					c-0.049,0.009-0.094,0.024-0.144,0.033c-0.547,0.099-1.084,0.22-1.605,0.37c-0.021,0.006-0.041,0.008-0.062,0.014
					c-0.07,0.021-0.137,0.052-0.207,0.074c-0.43,0.131-0.848,0.279-1.258,0.443c-0.071,0.029-0.147,0.047-0.219,0.077
					c-0.074,0.032-0.144,0.074-0.216,0.106c-0.394,0.171-0.772,0.358-1.146,0.56c-0.071,0.039-0.149,0.068-0.221,0.108
					c-0.058,0.031-0.113,0.063-0.169,0.097l-5.036,2.927c-0.123,0.062-0.25,0.115-0.371,0.181c-0.072,0.039-0.149,0.068-0.222,0.108
					c-0.056,0.031-0.112,0.063-0.169,0.097l-29.509,17.148c0.125-0.073,0.259-0.134,0.388-0.204c0.373-0.202,0.755-0.389,1.147-0.56
					c0.143-0.062,0.287-0.124,0.434-0.182c0.41-0.165,0.83-0.313,1.259-0.444c0.09-0.027,0.178-0.061,0.269-0.087
					c0.522-0.149,1.06-0.271,1.606-0.37c0.139-0.025,0.279-0.043,0.418-0.065c0.463-0.073,0.936-0.128,1.414-0.165
					c0.145-0.011,0.286-0.025,0.432-0.034c0.623-0.034,1.258-0.04,1.906-0.015c0.35,0.014,0.703,0.036,1.061,0.067
					c0.082,0.008,0.163,0.01,0.246,0.018c0.459,0.045,0.923,0.105,1.393,0.18c0.204,0.032,0.412,0.076,0.619,0.114
					c0.298,0.054,0.596,0.107,0.898,0.173c0.219,0.048,0.44,0.107,0.664,0.161c0.283,0.069,0.565,0.139,0.854,0.218
					c0.521,0.145,1.049,0.308,1.581,0.486c0.077,0.025,0.151,0.046,0.229,0.072c0.608,0.21,1.226,0.445,1.847,0.7
					c0.144,0.058,0.29,0.126,0.437,0.188c0.581,0.248,1.168,0.514,1.76,0.802c0.199,0.096,0.396,0.191,0.597,0.292
					c0.725,0.365,1.454,0.75,2.19,1.176c0.897,0.518,1.783,1.084,2.662,1.67c0.223,0.148,0.446,0.299,0.668,0.452
					c0.832,0.573,1.658,1.167,2.471,1.797c0.041,0.032,0.084,0.061,0.125,0.092c0.849,0.661,1.681,1.36,2.502,2.077
					c0.211,0.182,0.418,0.367,0.625,0.552c0.752,0.672,1.494,1.362,2.224,2.076c0.073,0.072,0.149,0.141,0.224,0.213
					c0.401,0.399,0.797,0.813,1.19,1.225c0.2,0.208,0.403,0.409,0.603,0.619c0.588,0.628,1.168,1.269,1.735,1.922l5.765-3.35
					c0.012,0.013,0.022,0.025,0.032,0.037L327.77,20.62z"/>
				
					<linearGradient id="SVGID_29_" gradientUnits="userSpaceOnUse" x1="-9308.5205" y1="247.625" x2="-9252.8398" y2="247.625" gradientTransform="matrix(-1 0 0 -1 -8894.4355 373)">
					<stop  offset="0" style="stop-color:#FFFFFF"/>
					<stop  offset="1" style="stop-color:#D1D0CF"/>
				</linearGradient>
				<path fill="url(#SVGID_29_)" d="M413.995,125.056c-0.021-0.299-0.062-0.603-0.088-0.903c-0.05-0.547-0.09-1.09-0.16-1.642
					c-0.008-0.061-0.021-0.123-0.027-0.185c-0.02-0.148-0.047-0.297-0.066-0.446c-0.102-0.703-0.221-1.409-0.354-2.119
					c-0.04-0.211-0.078-0.42-0.121-0.631c-0.032-0.153-0.056-0.305-0.089-0.457c-0.063-0.303-0.153-0.609-0.224-0.914
					c-0.134-0.576-0.271-1.15-0.426-1.728c-0.039-0.151-0.068-0.301-0.109-0.452c-0.092-0.324-0.202-0.648-0.299-0.973
					c-0.136-0.454-0.27-0.908-0.416-1.363c-0.05-0.153-0.089-0.306-0.141-0.459c-0.125-0.373-0.269-0.744-0.4-1.116
					c-0.138-0.383-0.269-0.765-0.412-1.147c-0.045-0.118-0.082-0.236-0.127-0.354c-0.187-0.481-0.393-0.96-0.589-1.44
					c-0.123-0.296-0.237-0.594-0.364-0.89c-0.026-0.061-0.049-0.122-0.075-0.183c-0.355-0.823-0.73-1.643-1.125-2.457
					c-0.002-0.004-0.005-0.009-0.007-0.014c-0.024-0.051-0.053-0.102-0.077-0.152c-0.37-0.762-0.752-1.521-1.153-2.275
					c-0.033-0.065-0.072-0.13-0.108-0.195c-0.165-0.31-0.342-0.615-0.513-0.922c-0.248-0.446-0.487-0.895-0.745-1.336
					c-0.067-0.115-0.142-0.226-0.207-0.339c-0.224-0.377-0.455-0.748-0.685-1.12c-0.215-0.348-0.419-0.7-0.64-1.044
					c-0.088-0.139-0.188-0.274-0.276-0.412c-0.276-0.429-0.564-0.85-0.853-1.273c-0.203-0.3-0.397-0.607-0.604-0.903
					c-0.094-0.133-0.194-0.259-0.289-0.392c-0.361-0.508-0.733-1.004-1.107-1.501c-0.206-0.275-0.402-0.56-0.612-0.831
					c-0.07-0.091-0.146-0.174-0.217-0.264c-0.728-0.929-1.471-1.841-2.238-2.726c-0.013-0.015-0.023-0.031-0.038-0.046
					c0,0-0.003-0.004-0.005-0.006c-0.018-0.021-0.035-0.038-0.053-0.058c-0.609-0.699-1.234-1.381-1.869-2.049
					c-0.205-0.218-0.416-0.428-0.625-0.642c-0.285-0.293-0.567-0.593-0.857-0.879c-0.295-0.291-0.592-0.578-0.891-0.862
					l-5.762,3.348c-0.014-0.012-0.024-0.024-0.036-0.036l-29.51,17.149c0.595,0.563,1.175,1.153,1.751,1.744
					c0.208,0.213,0.418,0.421,0.623,0.638c0.636,0.671,1.264,1.354,1.877,2.058c0.015,0.016,0.028,0.031,0.044,0.048
					c0.017,0.02,0.031,0.041,0.05,0.06c0.766,0.881,1.506,1.792,2.231,2.716c0.281,0.362,0.557,0.731,0.832,1.099
					c0.373,0.495,0.744,0.991,1.104,1.497c0.305,0.428,0.602,0.863,0.896,1.297c0.286,0.421,0.574,0.844,0.854,1.271
					c0.312,0.482,0.614,0.971,0.915,1.459c0.229,0.371,0.461,0.741,0.682,1.115c0.33,0.557,0.646,1.12,0.958,1.685
					c0.169,0.305,0.346,0.606,0.509,0.914c0.438,0.816,0.857,1.637,1.26,2.464c0.025,0.054,0.056,0.107,0.082,0.161
					c0.423,0.88,0.823,1.766,1.206,2.654c0.126,0.293,0.238,0.587,0.358,0.881c0.249,0.601,0.494,1.203,0.723,1.805
					c0.144,0.379,0.273,0.759,0.408,1.138c0.188,0.528,0.372,1.056,0.543,1.585c0.147,0.453,0.281,0.904,0.415,1.357
					c0.144,0.477,0.282,0.954,0.41,1.429c0.154,0.576,0.29,1.151,0.424,1.726c0.106,0.458,0.222,0.916,0.312,1.372
					c0.044,0.21,0.083,0.419,0.122,0.63c0.135,0.709,0.254,1.417,0.354,2.12c0.021,0.148,0.047,0.298,0.067,0.446
					c0.08,0.61,0.132,1.214,0.186,1.818c0.027,0.304,0.068,0.61,0.09,0.912c0.06,0.893,0.091,1.777,0.09,2.651
					c-0.024,8.625-3.13,14.69-8.186,17.627l6.759-3.928c-0.312,0.218-0.632,0.424-0.961,0.615l29.511-17.149
					c1.579-0.918,2.969-2.141,4.133-3.652c2.561-3.326,4.034-8.045,4.05-13.976C414.086,126.834,414.054,125.948,413.995,125.056z"
					/>
				
					<linearGradient id="SVGID_30_" gradientUnits="userSpaceOnUse" x1="-9288.541" y1="312.9189" x2="-9191.1172" y2="312.9189" gradientTransform="matrix(-1 0 0 -1 -8894.4355 373)">
					<stop  offset="0" style="stop-color:#FFFFFF"/>
					<stop  offset="1" style="stop-color:#D1D0CF"/>
				</linearGradient>
				<path fill="url(#SVGID_30_)" d="M394.02,76.814c-0.013-0.226-0.026-0.453-0.044-0.68c-0.065-0.918-0.149-1.841-0.27-2.771
					c-0.002-0.007-0.002-0.014-0.002-0.021c-0.02-0.144-0.045-0.29-0.066-0.435c-0.077-0.571-0.16-1.143-0.258-1.718
					c-0.045-0.265-0.102-0.532-0.148-0.797c-0.085-0.465-0.171-0.929-0.27-1.396c-0.012-0.057-0.021-0.112-0.032-0.168
					c-0.021-0.093-0.048-0.188-0.067-0.281c-0.235-1.075-0.499-2.155-0.796-3.237c-0.019-0.064-0.028-0.128-0.047-0.192
					c-0.007-0.025-0.017-0.051-0.023-0.076c-0.271-0.976-0.574-1.955-0.896-2.932c-0.034-0.109-0.062-0.218-0.1-0.326
					c-0.043-0.128-0.095-0.256-0.138-0.383c-0.284-0.836-0.582-1.672-0.9-2.507c-0.028-0.077-0.052-0.154-0.082-0.23
					c-0.009-0.021-0.018-0.041-0.024-0.062c-0.344-0.888-0.708-1.775-1.088-2.659c-0.038-0.091-0.072-0.183-0.111-0.273
					c-0.065-0.149-0.14-0.297-0.205-0.446c-0.298-0.679-0.608-1.355-0.928-2.029c-0.071-0.149-0.135-0.299-0.205-0.448
					c-0.038-0.076-0.079-0.151-0.116-0.227c-0.42-0.864-0.854-1.725-1.307-2.579c-0.019-0.033-0.033-0.067-0.052-0.1
					c-0.059-0.109-0.123-0.216-0.182-0.326c-0.398-0.743-0.812-1.48-1.233-2.215c-0.072-0.125-0.14-0.255-0.213-0.38
					c-0.062-0.109-0.134-0.215-0.198-0.325c-0.522-0.887-1.057-1.769-1.612-2.638c-0.002-0.004-0.004-0.009-0.008-0.013
					c-0.011-0.017-0.022-0.034-0.033-0.051c-0.581-0.907-1.186-1.798-1.799-2.683c-0.079-0.114-0.151-0.231-0.23-0.344
					c-0.06-0.084-0.124-0.164-0.184-0.248c-0.676-0.955-1.367-1.895-2.08-2.819c-0.048-0.061-0.091-0.125-0.14-0.187
					c-0.063-0.083-0.134-0.159-0.198-0.242c-0.846-1.08-1.71-2.139-2.603-3.168c-0.04-0.045-0.076-0.095-0.116-0.141
					c-0.121-0.14-0.248-0.273-0.371-0.411c-0.435-0.493-0.873-0.98-1.318-1.46c-0.204-0.221-0.409-0.441-0.615-0.658
					c-0.468-0.494-0.941-0.979-1.42-1.456c-0.125-0.124-0.244-0.255-0.369-0.378c-0.051-0.049-0.103-0.097-0.153-0.146
					c-0.195-0.192-0.396-0.379-0.594-0.569c-0.329-0.315-0.659-0.629-0.992-0.937c-0.218-0.201-0.438-0.397-0.655-0.594
					c-0.321-0.288-0.643-0.574-0.965-0.854c-0.229-0.198-0.461-0.394-0.688-0.587c-0.322-0.271-0.646-0.539-0.971-0.803
					c-0.233-0.19-0.468-0.377-0.702-0.562c-0.329-0.26-0.66-0.514-0.992-0.766c-0.234-0.177-0.468-0.354-0.703-0.527
					c-0.346-0.254-0.693-0.5-1.044-0.747c-0.224-0.158-0.447-0.318-0.673-0.471c-0.388-0.265-0.778-0.519-1.17-0.771
					c-0.189-0.123-0.378-0.25-0.567-0.37c-0.584-0.368-1.171-0.725-1.762-1.065c-0.819-0.473-1.631-0.901-2.438-1.309
					c-0.222-0.112-0.441-0.219-0.663-0.326c-0.658-0.319-1.312-0.617-1.96-0.892c-0.113-0.048-0.23-0.11-0.345-0.157
					c-0.047-0.02-0.092-0.033-0.138-0.052c-0.692-0.284-1.378-0.546-2.057-0.779c-0.092-0.031-0.181-0.055-0.271-0.085
					c-0.588-0.197-1.171-0.376-1.747-0.537c-0.062-0.018-0.129-0.042-0.19-0.059c-0.256-0.069-0.503-0.121-0.756-0.182
					c-0.247-0.061-0.495-0.126-0.741-0.18c-0.336-0.074-0.667-0.132-0.999-0.193c-0.229-0.042-0.46-0.09-0.687-0.125
					c-0.04-0.006-0.08-0.016-0.12-0.021c-0.481-0.075-0.959-0.133-1.432-0.18c-0.084-0.008-0.166-0.01-0.25-0.018
					c-0.361-0.031-0.721-0.062-1.075-0.077c-0.045-0.001-0.087,0.002-0.132,0.001c-0.719-0.027-1.424-0.02-2.114,0.019
					c-0.056,0.002-0.115-0.002-0.171,0.001c-0.104,0.007-0.205,0.029-0.311,0.036c-0.533,0.042-1.057,0.104-1.57,0.184
					c-0.101,0.016-0.208,0.019-0.308,0.037c-0.055,0.009-0.104,0.026-0.157,0.036c-0.608,0.11-1.205,0.245-1.785,0.411
					c-0.021,0.006-0.045,0.009-0.067,0.016c-0.079,0.023-0.151,0.058-0.23,0.082c-0.478,0.145-0.941,0.309-1.396,0.492
					c-0.079,0.032-0.164,0.053-0.242,0.086c-0.082,0.035-0.159,0.081-0.241,0.118c-0.434,0.189-0.854,0.396-1.269,0.62
					c-0.08,0.043-0.169,0.076-0.248,0.121c-0.063,0.036-0.127,0.072-0.19,0.109l-5.018,2.916c-0.111,0.058-0.229,0.106-0.341,0.166
					c-0.081,0.044-0.169,0.077-0.249,0.122c-0.062,0.036-0.127,0.072-0.189,0.109l-29.511,17.149
					c0.144-0.083,0.293-0.152,0.439-0.23c0.412-0.224,0.834-0.431,1.268-0.62c0.16-0.07,0.32-0.138,0.484-0.204
					c0.455-0.183,0.92-0.348,1.396-0.492c0.101-0.031,0.197-0.069,0.299-0.098c0.58-0.166,1.178-0.301,1.785-0.411
					c0.152-0.028,0.312-0.048,0.465-0.073c0.516-0.081,1.037-0.142,1.57-0.184c0.16-0.012,0.319-0.029,0.48-0.037
					c0.691-0.038,1.396-0.046,2.114-0.02c0.397,0.015,0.801,0.041,1.207,0.076c0.085,0.007,0.167,0.01,0.251,0.018
					c0.511,0.05,1.027,0.119,1.551,0.201c0.227,0.036,0.457,0.083,0.688,0.126c0.331,0.061,0.662,0.119,0.998,0.192
					c0.245,0.054,0.495,0.12,0.742,0.18c0.314,0.077,0.629,0.153,0.946,0.242c0.576,0.16,1.159,0.34,1.747,0.537
					c0.09,0.03,0.179,0.054,0.27,0.085c0.678,0.233,1.364,0.495,2.058,0.779c0.158,0.065,0.32,0.141,0.48,0.208
					c0.648,0.275,1.302,0.573,1.96,0.893c0.221,0.107,0.442,0.214,0.664,0.326c0.807,0.408,1.618,0.835,2.438,1.309
					c0.591,0.341,1.178,0.697,1.762,1.065c0.188,0.119,0.378,0.247,0.565,0.369c0.393,0.253,0.783,0.508,1.173,0.772
					c0.225,0.154,0.447,0.313,0.673,0.471c0.349,0.246,0.695,0.492,1.043,0.747c0.234,0.173,0.469,0.35,0.703,0.527
					c0.332,0.251,0.662,0.506,0.991,0.765c0.234,0.186,0.47,0.373,0.702,0.563c0.325,0.264,0.648,0.531,0.971,0.803
					c0.23,0.194,0.46,0.389,0.688,0.587c0.323,0.281,0.645,0.566,0.964,0.854c0.222,0.198,0.439,0.395,0.657,0.595
					c0.333,0.307,0.663,0.621,0.992,0.938c0.198,0.19,0.396,0.376,0.593,0.569c0.177,0.172,0.348,0.351,0.522,0.524
					c0.479,0.478,0.951,0.963,1.421,1.456c0.206,0.217,0.411,0.438,0.614,0.658c0.445,0.48,0.886,0.967,1.32,1.46
					c0.162,0.184,0.325,0.366,0.486,0.552c0.892,1.03,1.758,2.088,2.602,3.168c0.112,0.144,0.227,0.285,0.338,0.429
					c0.712,0.924,1.406,1.865,2.081,2.821c0.14,0.195,0.274,0.391,0.411,0.588c0.615,0.885,1.22,1.778,1.801,2.685
					c0.015,0.021,0.027,0.042,0.041,0.063c0.558,0.87,1.09,1.751,1.614,2.639c0.137,0.235,0.273,0.47,0.41,0.705
					c0.423,0.734,0.834,1.471,1.232,2.215c0.076,0.142,0.156,0.283,0.232,0.425c0.453,0.854,0.887,1.715,1.307,2.579
					c0.109,0.225,0.215,0.45,0.32,0.675c0.32,0.674,0.631,1.35,0.93,2.029c0.105,0.24,0.214,0.479,0.315,0.719
					c0.38,0.884,0.745,1.771,1.088,2.66c0.037,0.097,0.07,0.194,0.107,0.292c0.317,0.834,0.615,1.671,0.899,2.507
					c0.081,0.236,0.159,0.473,0.237,0.709c0.32,0.977,0.623,1.955,0.896,2.932c0.024,0.09,0.046,0.179,0.069,0.268
					c0.297,1.083,0.562,2.162,0.795,3.238c0.033,0.15,0.07,0.3,0.103,0.449c0.098,0.466,0.182,0.931,0.269,1.395
					c0.049,0.265,0.104,0.532,0.149,0.798c0.098,0.575,0.18,1.146,0.258,1.718c0.021,0.152,0.049,0.304,0.066,0.455
					c0.12,0.932,0.204,1.854,0.271,2.771c0.016,0.227,0.03,0.455,0.044,0.681c0.053,0.919,0.089,1.834,0.086,2.738
					c-0.005,1.904-0.147,3.703-0.396,5.405l5.804-3.373c-0.003,0.02-0.004,0.041-0.007,0.06l29.511-17.149
					c0.248-1.702,0.392-3.5,0.396-5.405C394.109,78.649,394.074,77.734,394.02,76.814z"/>
			</g>
			
				<linearGradient id="SVGID_31_" gradientUnits="userSpaceOnUse" x1="-151.7905" y1="277.2363" x2="6.3838" y2="277.2363" gradientTransform="matrix(1 0 0 -1 372.3936 373)">
				<stop  offset="0" style="stop-color:#FFFFFF"/>
				<stop  offset="1" style="stop-color:#D1D0CF"/>
			</linearGradient>
			<path fill="url(#SVGID_31_)" d="M358.402,105.419c0.249-1.702,0.393-3.5,0.396-5.405c0.062-21.477-15.975-48.167-35.817-59.624
				c-12.854-7.421-24.142-6.624-30.52,0.691c-4.483-5.147-9.597-9.559-15.028-12.694c-15.963-9.216-29.25-4.334-31.901,10.627
				c-14.13-5.389-24.883,1.764-24.929,17.834c-0.052,18.08,13.448,40.546,30.153,50.19l97.683,56.396
				c16.702,9.644,30.286,2.814,30.339-15.265C378.817,133.811,370.29,116.687,358.402,105.419z"/>
			
				<linearGradient id="SVGID_32_" gradientUnits="userSpaceOnUse" x1="276.1797" y1="270.4473" x2="419.4336" y2="270.4473" gradientTransform="matrix(1 0 0 -1 -50 373)">
				<stop  offset="0.4297" style="stop-color:#FF720B"/>
				<stop  offset="1" style="stop-color:#FFAC06"/>
			</linearGradient>
			<path fill="url(#SVGID_32_)" d="M369.434,159.677c-1.532,1.533-3.707,2.563-6.771,2.563c-3.371,0-7.327-1.253-11.451-3.622
				l-97.668-56.399c-14.88-8.582-27.418-29.37-27.363-45.364c0-4.041,0.976-13.236,9.419-13.989
				c-3.261,3.205-3.734,8.61-3.734,11.481c-0.056,15.994,12.483,36.753,27.363,45.336l97.666,56.399
				c4.124,2.397,8.081,3.65,11.453,3.65C368.737,159.733,369.099,159.705,369.434,159.677z"/>
			
				<linearGradient id="SVGID_33_" gradientUnits="userSpaceOnUse" x1="281.8633" y1="278.4854" x2="423.1953" y2="278.4854" gradientTransform="matrix(1 0 0 -1 -50 373)">
				<stop  offset="0" style="stop-color:#FFAC06"/>
				<stop  offset="0.5703" style="stop-color:#FF720B"/>
			</linearGradient>
			<path fill="url(#SVGID_33_)" d="M373.195,148.141c0,2.871-0.475,8.332-3.763,11.536c-0.335,0.028-0.695,0.056-1.087,0.056
				c-3.372,0-7.329-1.253-11.453-3.65l-97.666-56.399c-14.88-8.583-27.419-29.342-27.364-45.336c0-2.871,0.474-8.276,3.734-11.481
				c0.362-0.028,0.724-0.056,1.113-0.056c2.091,0,4.375,0.475,6.828,1.394l6.298,2.425l0.779-4.403l4.904,1.867l1.17-6.632
				c0.502-2.786,1.59-5.908,3.873-8.053c0.529-0.084,1.088-0.112,1.672-0.112c3.68,0,7.971,1.337,12.399,3.901
				c4.71,2.729,9.419,6.715,13.628,11.536l4.207,4.821l3.928-4.514l1.756,2.006l4.181-4.821c0.418-0.474,0.836-0.892,1.31-1.253
				c0.781-0.14,1.588-0.195,2.452-0.195c4.182,0,9.057,1.532,14.101,4.43C338.169,55.573,353.3,80.68,353.243,99.99
				c-0.027,1.561-0.14,3.121-0.361,4.626l-0.418,2.842l2.117,2.006C365.587,119.886,373.251,135.797,373.195,148.141z"/>
			<path fill="#CC6600" d="M255.521,44.093l-5.684,2.536l0.779-4.403l0.391-2.229c0.808-4.542,3.148-9.809,9.558-10.588
				c-2.283,2.145-3.371,5.267-3.873,8.053L255.521,44.093z"/>
			<path fill="#CC6600" d="M298.154,47.047l-5.686,2.508l3.93-4.514l0.25-0.307c1.812-2.062,4.152-3.316,6.994-3.762
				c-0.474,0.362-0.892,0.78-1.31,1.253L298.154,47.047z"/>
		</g>
	</g>
	<path fill="none" stroke="#D1D0CF" stroke-width="1.5062" stroke-miterlimit="10" d="M332.979,165.559v22.458
		c0,7.063,3.873,13.559,10.089,16.916l57.314,30.963c6.762,3.653,10.976,10.718,10.976,18.402v162.429
		c0,10.246-11.216,16.541-19.961,11.205l-27.054-16.504"/>
	<path fill="none" stroke="#D1D0CF" stroke-width="1.5062" stroke-miterlimit="10" d="M272.831,131.377v20.691
		c0,7.095-7.593,11.605-13.822,8.209l-70.146-38.226c-7.571-4.126-16.8,1.354-16.8,9.978v51.493"/>
	
		<line fill="none" stroke="#D1D0CF" stroke-width="1.5062" stroke-miterlimit="10" x1="299.979" y1="146.2" x2="299.979" y2="204.666"/>
	<g enable-background="new    ">
		<path fill="#FFFFFF" d="M167.057,197.486c-0.226-1.648-0.855-2.726-2.004-3.386c-1.558-0.896-2.536,0.179-2.604,2.885
			c-0.068,2.673,0.789,4.77,2.32,5.649c1.229,0.707,2.017,0.256,2.189-1.231l1.928,1.108c-0.191,2.738-1.82,3.593-4.223,2.212
			c-2.68-1.541-4.294-4.96-4.194-8.91c0.102-3.967,1.854-5.467,4.574-3.903c1.439,0.828,2.61,2.2,3.318,3.869
			c0.391,0.924,0.546,1.695,0.584,2.793L167.057,197.486z"/>
		<path fill="#FFFFFF" d="M177.906,201.029c0.829,1.653,1.273,3.666,1.225,5.582c-0.044,1.731-0.605,3.217-1.466,3.865
			c-0.86,0.665-1.957,0.598-3.33-0.192c-1.373-0.789-2.441-1.966-3.245-3.588c-0.828-1.653-1.272-3.665-1.225-5.497
			c0.047-1.833,0.579-3.267,1.466-3.95c0.848-0.655,1.971-0.589,3.318,0.186C176.049,198.239,177.091,199.384,177.906,201.029z
			 M171.845,202.338c-0.066,2.589,0.934,4.869,2.544,5.795c1.584,0.91,2.696-0.155,2.761-2.678c0.067-2.655-0.919-4.928-2.543-5.861
			C172.997,198.668,171.911,199.749,171.845,202.338z"/>
		<path fill="#FFFFFF" d="M182.543,206.016l-0.216,8.472l-1.98-1.139l0.312-12.254l2.034,1.169l3.602,10.531l0.212-8.338l1.98,1.139
			l-0.312,12.254l-1.98-1.139L182.543,206.016z"/>
		<path fill="#FFFFFF" d="M194.061,221.233l-1.98-1.139l0.259-10.153l-2.918-1.678l0.054-2.101l7.71,4.433l-0.054,2.101
			l-2.812-1.616L194.061,221.233z"/>
		<path fill="#FFFFFF" d="M199.958,224.625l-1.98-1.139l0.312-12.255l5.162,2.968c0.818,0.471,1.419,1.089,1.839,1.91
			c0.447,0.871,0.688,1.914,0.664,2.89c-0.038,1.496-0.604,2.177-1.701,2.092c1.21,1.378,1.26,1.577,1.22,5.222
			c-0.014,0.538,0.099,0.857,0.397,1.251l-0.012,0.454l-2.125-1.223c-0.222-0.725-0.267-1.108-0.237-2.268
			c0.004-0.186,0.012-0.488,0.034-0.8l0.013-0.504c0.026-1.009-0.333-1.658-1.19-2.151l-2.271-1.306L199.958,224.625z
			 M202.525,219.039c0.568,0.326,0.821,0.387,1.051,0.28c0.245-0.115,0.375-0.518,0.39-1.106c0.015-0.571-0.093-1.06-0.325-1.449
			c-0.244-0.396-0.467-0.592-1.035-0.919l-2.389-1.373l-0.082,3.193L202.525,219.039z"/>
		<path fill="#FFFFFF" d="M215.081,222.403c0.829,1.653,1.273,3.665,1.224,5.582c-0.044,1.731-0.605,3.217-1.465,3.865
			c-0.86,0.665-1.958,0.597-3.331-0.192c-1.373-0.79-2.441-1.967-3.245-3.588c-0.828-1.653-1.272-3.666-1.225-5.498
			s0.579-3.266,1.466-3.949c0.848-0.656,1.971-0.59,3.318,0.185C213.224,219.612,214.266,220.757,215.081,222.403z M209.02,223.711
			c-0.066,2.589,0.934,4.869,2.544,5.795c1.584,0.911,2.696-0.154,2.761-2.677c0.067-2.655-0.919-4.929-2.543-5.862
			C210.171,220.041,209.085,221.122,209.02,223.711z"/>
		<path fill="#FFFFFF" d="M219.714,233.851l4.607,2.649l-0.054,2.101l-6.589-3.787l0.312-12.255l1.981,1.139L219.714,233.851z"/>
		<path fill="#FFFFFF" d="M227.764,238.479l5.215,2.998l-0.054,2.102l-7.195-4.138l0.312-12.254l6.957,4l-0.054,2.102l-4.977-2.862
			l-0.071,2.774l4.606,2.648l-0.053,2.102l-4.606-2.649L227.764,238.479z"/>
		<path fill="#FFFFFF" d="M239.844,238.909c-0.034-1.281-0.717-2.355-1.971-3.077c-1.029-0.592-1.678-0.367-1.702,0.557
			c-0.022,0.892,0.377,1.479,1.782,2.645l1.494,1.234c1.771,1.462,2.512,2.911,2.463,4.845c-0.064,2.505-1.567,3.124-4.049,1.697
			c-2.455-1.411-3.832-3.652-3.883-6.344l1.928,1.108c0.032,1.35,0.767,2.505,2.113,3.279c1.201,0.69,1.957,0.493,1.982-0.532
			c0.025-0.991-0.452-1.743-1.763-2.821l-1.338-1.11c-1.941-1.594-2.67-2.951-2.622-4.851c0.061-2.388,1.429-2.999,3.74-1.671
			c2.429,1.396,3.727,3.559,3.675,6.104L239.844,238.909z"/>
		<path fill="#FFFFFF" d="M249.005,250.317l-0.709,2.099l-2.021-1.161l3.732-10.288l2.191,1.26l3.014,14.167l-2.032-1.169
			l-0.572-2.835L249.005,250.317z M250.991,244.465l-1.377,4.07l2.508,1.442L250.991,244.465z"/>
		<path fill="#FFFFFF" d="M256.789,244.865l3.762,2.163c1.479,0.851,2.379,1.794,3.014,3.166c0.724,1.592,1.09,3.475,1.041,5.374
			c-0.049,1.917-0.499,3.329-1.281,4.039c-0.686,0.612-1.62,0.519-3.086-0.324l-3.762-2.163L256.789,244.865z M260.292,257.182
			c1.492,0.858,2.265-0.045,2.334-2.734c0.069-2.707-0.637-4.46-2.129-5.317l-1.782-1.024l-0.205,8.052L260.292,257.182z"/>
		<path fill="#FFFFFF" d="M267.839,263.652l-1.98-1.138l0.312-12.255l2.957,1.7l1.495,10.752l1.938-8.778l2.983,1.716l-0.312,12.254
			l-1.979-1.139l0.244-9.548l-1.948,8.569l-1.979-1.139l-1.486-10.543L267.839,263.652z"/>
		<path fill="#FFFFFF" d="M278.805,269.958l-1.98-1.139l0.062-2.454l1.98,1.139L278.805,269.958z"/>
	</g>
	<g>
		<g>
			
				<linearGradient id="SVGID_34_" gradientUnits="userSpaceOnUse" x1="235.8726" y1="-83.8369" x2="235.8726" y2="66.9033" gradientTransform="matrix(1 0 0 -1 -50 373)">
				<stop  offset="0" style="stop-color:#EBEBEB"/>
				<stop  offset="1" style="stop-color:#FFFEFF"/>
			</linearGradient>
			<polygon fill="url(#SVGID_34_)" points="261.094,295.811 110.652,209.535 110.652,409.913 261.094,496.188 			"/>
			
				<linearGradient id="SVGID_35_" gradientUnits="userSpaceOnUse" x1="168.8906" y1="181.9863" x2="338.8148" y2="37.7827" gradientTransform="matrix(1 0 0 -1 -50 373)">
				<stop  offset="0" style="stop-color:#C10B06"/>
				<stop  offset="0.5703" style="stop-color:#FF1E0B"/>
			</linearGradient>
			<polygon fill="url(#SVGID_35_)" points="268.414,292.393 261.094,295.811 110.652,209.535 117.974,206.118 			"/>
			
				<linearGradient id="SVGID_36_" gradientUnits="userSpaceOnUse" x1="311.0938" y1="-21.29" x2="318.4141" y2="-21.29" gradientTransform="matrix(1 0 0 -1 -50 373)">
				<stop  offset="0" style="stop-color:#AFAEAE"/>
				<stop  offset="1" style="stop-color:#ADADAD"/>
			</linearGradient>
			<polygon fill="url(#SVGID_36_)" points="261.094,496.188 268.414,492.77 268.414,292.393 261.094,295.811 			"/>
			<g>
				
					<linearGradient id="SVGID_37_" gradientUnits="userSpaceOnUse" x1="218.9702" y1="2752.6816" x2="218.9702" y2="2760.5742" gradientTransform="matrix(1 0.5647 0 -1 -50 2936.0151)">
					<stop  offset="0" style="stop-color:#B8B8B8"/>
					<stop  offset="1" style="stop-color:#FFFEFF"/>
				</linearGradient>
				<path fill="url(#SVGID_37_)" d="M201.643,326.195l-65.345-36.902c-2.456-1.387-4.464-4.531-4.464-6.986l0,0
					c0-2.455,2.008-3.328,4.464-1.941l65.345,36.902c2.455,1.387,4.465,4.529,4.465,6.985l0,0
					C206.107,326.707,204.098,327.582,201.643,326.195z"/>
				
					<linearGradient id="SVGID_38_" gradientUnits="userSpaceOnUse" x1="239.1265" y1="2734.1738" x2="239.1265" y2="2742.0662" gradientTransform="matrix(1 0.5647 0 -1 -50 2936.0151)">
					<stop  offset="0" style="stop-color:#B8B8B8"/>
					<stop  offset="1" style="stop-color:#FFFEFF"/>
				</linearGradient>
				<path fill="url(#SVGID_38_)" d="M241.957,367.471l-105.659-59.67c-2.456-1.387-4.464-4.529-4.464-6.984l0,0
					c0-2.455,2.008-3.33,4.464-1.942l105.659,59.67c2.454,1.388,4.463,4.529,4.463,6.984l0,0
					C246.42,367.982,244.411,368.857,241.957,367.471z"/>
				
					<linearGradient id="SVGID_39_" gradientUnits="userSpaceOnUse" x1="239.1265" y1="2715.665" x2="239.1265" y2="2723.5574" gradientTransform="matrix(1 0.5647 0 -1 -50 2936.0151)">
					<stop  offset="0" style="stop-color:#B8B8B8"/>
					<stop  offset="1" style="stop-color:#FFFEFF"/>
				</linearGradient>
				<path fill="url(#SVGID_39_)" d="M241.957,385.979l-105.659-59.67c-2.456-1.387-4.464-4.529-4.464-6.984l0,0
					c0-2.455,2.008-3.329,4.464-1.942l105.659,59.669c2.454,1.387,4.463,4.53,4.463,6.986l0,0
					C246.42,386.492,244.411,387.366,241.957,385.979z"/>
				
					<linearGradient id="SVGID_40_" gradientUnits="userSpaceOnUse" x1="239.1265" y1="2697.1562" x2="239.1265" y2="2705.0486" gradientTransform="matrix(1 0.5647 0 -1 -50 2936.0151)">
					<stop  offset="0" style="stop-color:#B8B8B8"/>
					<stop  offset="1" style="stop-color:#FFFEFF"/>
				</linearGradient>
				<path fill="url(#SVGID_40_)" d="M241.957,404.488l-105.659-59.67c-2.456-1.387-4.464-4.53-4.464-6.985l0,0
					c0-2.455,2.008-3.329,4.464-1.942l105.659,59.67c2.454,1.388,4.463,4.529,4.463,6.984l0,0
					C246.42,405,244.411,405.875,241.957,404.488z"/>
				
					<linearGradient id="SVGID_41_" gradientUnits="userSpaceOnUse" x1="232.0229" y1="2678.6475" x2="232.0229" y2="2686.5376" gradientTransform="matrix(1 0.5647 0 -1 -50 2936.0151)">
					<stop  offset="0" style="stop-color:#B8B8B8"/>
					<stop  offset="1" style="stop-color:#FFFEFF"/>
				</linearGradient>
				<path fill="url(#SVGID_41_)" d="M227.748,414.973l-91.45-51.646c-2.456-1.388-4.464-4.53-4.464-6.985l0,0
					c0-2.455,2.008-3.33,4.464-1.941l91.45,51.646c2.455,1.386,4.465,4.529,4.465,6.985l0,0
					C232.213,415.485,230.203,416.36,227.748,414.973z"/>
			</g>
		</g>
		
			<linearGradient id="SVGID_42_" gradientUnits="userSpaceOnUse" x1="235.8726" y1="65.3994" x2="235.8726" y2="160.1142" gradientTransform="matrix(1 0 0 -1 -50 373)">
			<stop  offset="0" style="stop-color:#C10B06"/>
			<stop  offset="0.5703" style="stop-color:#FF1E0B"/>
		</linearGradient>
		<polygon fill="url(#SVGID_42_)" points="110.652,230.448 261.094,316.723 261.094,295.811 110.652,209.535 		"/>
		
			<linearGradient id="SVGID_43_" gradientUnits="userSpaceOnUse" x1="329.5918" y1="57.5093" x2="297.5474" y2="81.121" gradientTransform="matrix(1 0 0 -1 -50 373)">
			<stop  offset="0" style="stop-color:#C10B06"/>
			<stop  offset="0.5703" style="stop-color:#FF1E0B"/>
		</linearGradient>
		<polygon fill="url(#SVGID_43_)" points="261.094,295.811 268.414,292.393 268.414,313.307 261.094,316.723 		"/>
	</g>
	<g enable-background="new    ">
		<path fill="#FFFFFF" d="M118.141,228.757l-0.71,2.1l-2.02-1.161l3.732-10.289l2.192,1.26l3.014,14.168l-2.033-1.169l-0.571-2.836
			L118.141,228.757z M120.125,222.905l-1.376,4.069l2.508,1.442L120.125,222.905z"/>
		<path fill="#FFFFFF" d="M127.689,228.157l-0.216,8.473l-1.98-1.138l0.312-12.255l2.033,1.169l3.603,10.531l0.212-8.338l1.98,1.139
			l-0.312,12.255l-1.98-1.139L127.689,228.157z"/>
		<path fill="#FFFFFF" d="M137.116,239.667l-0.709,2.1l-2.02-1.161l3.732-10.289l2.192,1.26l3.014,14.168l-2.033-1.169l-0.571-2.836
			L137.116,239.667z M139.102,233.815l-1.377,4.069l2.508,1.442L139.102,233.815z M139.45,230.11l-0.925-0.532l0.989-1.989
			l1.664,0.956L139.45,230.11z"/>
		<path fill="#FFFFFF" d="M146.662,245.53l4.607,2.649l-0.054,2.102l-6.588-3.788l0.312-12.255l1.981,1.139L146.662,245.53z"/>
		<path fill="#FFFFFF" d="M154.446,252.139l-1.98-1.139l0.312-12.255l1.98,1.139L154.446,252.139z"/>
		<path fill="#FFFFFF" d="M161.685,247.652c-0.034-1.281-0.716-2.355-1.971-3.077c-1.029-0.592-1.677-0.368-1.701,0.557
			c-0.022,0.892,0.377,1.479,1.781,2.645l1.495,1.235c1.771,1.461,2.511,2.91,2.462,4.844c-0.064,2.504-1.566,3.124-4.049,1.697
			c-2.455-1.412-3.832-3.653-3.883-6.344l1.928,1.108c0.032,1.35,0.766,2.504,2.113,3.278c1.201,0.691,1.957,0.494,1.982-0.531
			c0.025-0.992-0.451-1.743-1.763-2.821l-1.338-1.111c-1.941-1.593-2.67-2.95-2.622-4.85c0.061-2.388,1.43-2.999,3.74-1.671
			c2.429,1.396,3.727,3.559,3.674,6.104L161.685,247.652z"/>
		<path fill="#FFFFFF" d="M166.917,259.309l-1.98-1.139l0.312-12.255l1.98,1.139L166.917,259.309z"/>
		<path fill="#FFFFFF" d="M174.155,254.823c-0.034-1.282-0.716-2.356-1.971-3.078c-1.029-0.592-1.678-0.368-1.702,0.557
			c-0.022,0.892,0.377,1.479,1.781,2.645l1.495,1.235c1.771,1.461,2.511,2.91,2.462,4.844c-0.064,2.504-1.566,3.124-4.049,1.697
			c-2.455-1.412-3.832-3.653-3.883-6.344l1.928,1.108c0.032,1.35,0.766,2.505,2.112,3.279c1.201,0.69,1.957,0.493,1.982-0.532
			c0.025-0.992-0.451-1.743-1.763-2.821l-1.338-1.111c-1.941-1.593-2.67-2.95-2.622-4.85c0.061-2.388,1.43-2.999,3.74-1.671
			c2.429,1.396,3.727,3.559,3.674,6.104L174.155,254.823z"/>
		<path fill="#FFFFFF" d="M181.573,255.301l3.763,2.163c1.478,0.85,2.378,1.794,3.014,3.166c0.723,1.593,1.09,3.475,1.042,5.374
			c-0.049,1.916-0.5,3.329-1.282,4.04c-0.686,0.611-1.621,0.518-3.086-0.325l-3.763-2.163L181.573,255.301z M185.077,267.617
			c1.492,0.857,2.264-0.045,2.333-2.734c0.069-2.706-0.636-4.46-2.127-5.317l-1.782-1.024l-0.206,8.052L185.077,267.617z"/>
		<path fill="#FFFFFF" d="M192.848,272.085l5.215,2.999l-0.054,2.102l-7.195-4.138l0.312-12.255l6.958,4.001l-0.053,2.102
			l-4.977-2.862l-0.071,2.773l4.607,2.649l-0.054,2.101l-4.607-2.648L192.848,272.085z"/>
		<path fill="#FFFFFF" d="M205.278,281.364l-1.981-1.139l0.312-12.255l5.163,2.969c0.818,0.47,1.418,1.088,1.839,1.91
			c0.447,0.871,0.688,1.914,0.663,2.889c-0.038,1.496-0.604,2.177-1.701,2.092c1.21,1.379,1.259,1.577,1.22,5.222
			c-0.014,0.538,0.098,0.858,0.396,1.252l-0.012,0.454l-2.126-1.223c-0.222-0.725-0.267-1.108-0.237-2.269
			c0.005-0.185,0.012-0.487,0.034-0.799l0.013-0.505c0.026-1.009-0.333-1.658-1.19-2.151l-2.271-1.306L205.278,281.364z
			 M207.845,275.779c0.568,0.326,0.82,0.386,1.051,0.28c0.245-0.116,0.375-0.519,0.39-1.107c0.015-0.571-0.093-1.06-0.325-1.448
			c-0.244-0.396-0.467-0.593-1.035-0.919l-2.389-1.374l-0.082,3.194L207.845,275.779z"/>
		<path fill="#FFFFFF" d="M214.672,286.767l-1.98-1.139l0.312-12.255l1.98,1.139L214.672,286.767z"/>
		<path fill="#FFFFFF" d="M218.606,286.896l5.215,2.998l-0.054,2.102l-7.195-4.137l0.312-12.255l6.957,4l-0.053,2.102l-4.977-2.861
			l-0.071,2.773l4.607,2.649l-0.054,2.101l-4.607-2.648L218.606,286.896z"/>
		<path fill="#FFFFFF" d="M230.687,287.326c-0.034-1.281-0.715-2.355-1.97-3.077c-1.029-0.592-1.678-0.368-1.702,0.557
			c-0.022,0.891,0.377,1.479,1.782,2.645l1.495,1.234c1.771,1.462,2.512,2.911,2.462,4.845c-0.064,2.504-1.567,3.124-4.049,1.696
			c-2.455-1.411-3.832-3.652-3.883-6.343l1.928,1.108c0.033,1.35,0.766,2.505,2.113,3.278c1.201,0.69,1.957,0.494,1.982-0.531
			c0.025-0.992-0.451-1.744-1.763-2.822l-1.338-1.11c-1.941-1.594-2.67-2.951-2.622-4.851c0.061-2.387,1.429-2.999,3.74-1.67
			c2.429,1.396,3.727,3.558,3.675,6.104L230.687,287.326z"/>
		<path fill="#FFFFFF" d="M242.466,302.78l-1.188-0.683l-0.196-1.751c-0.774,0.954-1.661,1.041-2.956,0.297
			c-2.601-1.496-4.432-5.295-4.337-9.01c0.098-3.816,2.052-5.336,4.824-3.742c2.323,1.336,3.893,3.842,4.067,6.518l-1.862-1.071
			c-0.155-0.736-0.293-1.106-0.562-1.567c-0.424-0.739-0.999-1.325-1.686-1.72c-1.689-0.972-2.733,0.049-2.8,2.688
			c-0.064,2.521,1.025,4.957,2.636,5.883c0.752,0.433,1.503,0.421,1.997-0.046c0.301-0.271,0.444-0.614,0.514-1.273l-2.19-1.26
			l0.053-2.102l3.854,2.217L242.466,302.78z"/>
		<path fill="#FFFFFF" d="M252.07,297.352c0.829,1.654,1.273,3.666,1.224,5.582c-0.044,1.731-0.605,3.218-1.465,3.865
			c-0.86,0.665-1.958,0.598-3.331-0.192c-1.373-0.789-2.441-1.966-3.244-3.587c-0.829-1.653-1.273-3.666-1.227-5.498
			c0.047-1.833,0.579-3.266,1.467-3.949c0.847-0.656,1.971-0.59,3.318,0.185C250.213,294.562,251.255,295.706,252.07,297.352z
			 M246.009,298.66c-0.066,2.589,0.934,4.869,2.544,5.795c1.584,0.911,2.696-0.155,2.761-2.677c0.068-2.656-0.919-4.929-2.543-5.862
			C247.161,294.99,246.076,296.071,246.009,298.66z"/>
	</g>
	<g enable-background="new    ">
		<path fill="#FFFFFF" d="M213.397,167.161l3.762,2.163c1.479,0.85,2.379,1.794,3.014,3.165c0.724,1.593,1.09,3.476,1.042,5.375
			c-0.05,1.916-0.5,3.329-1.282,4.039c-0.686,0.612-1.62,0.518-3.086-0.324l-3.762-2.164L213.397,167.161z M216.9,179.477
			c1.492,0.857,2.265-0.045,2.334-2.735c0.068-2.706-0.637-4.459-2.129-5.316l-1.782-1.025l-0.205,8.052L216.9,179.477z"/>
		<path fill="#FFFFFF" d="M230.319,178.408c0.829,1.654,1.272,3.666,1.224,5.582c-0.044,1.731-0.605,3.217-1.465,3.865
			c-0.86,0.665-1.957,0.598-3.33-0.192c-1.374-0.789-2.441-1.966-3.245-3.588c-0.828-1.653-1.271-3.665-1.226-5.497
			c0.047-1.833,0.579-3.267,1.467-3.95c0.848-0.655,1.971-0.589,3.318,0.186C228.461,175.617,229.504,176.762,230.319,178.408z
			 M224.258,179.716c-0.065,2.589,0.935,4.869,2.545,5.795c1.584,0.911,2.696-0.155,2.761-2.677c0.067-2.656-0.92-4.929-2.543-5.863
			C225.41,176.046,224.324,177.127,224.258,179.716z"/>
		<path fill="#FFFFFF" d="M239.185,186.2c-0.226-1.648-0.854-2.726-2.004-3.386c-1.558-0.896-2.535,0.179-2.604,2.886
			c-0.068,2.673,0.789,4.77,2.32,5.649c1.229,0.707,2.016,0.256,2.188-1.232l1.928,1.108c-0.191,2.739-1.82,3.593-4.223,2.212
			c-2.68-1.541-4.294-4.959-4.193-8.91c0.102-3.967,1.854-5.466,4.573-3.903c1.439,0.827,2.61,2.2,3.318,3.869
			c0.391,0.924,0.545,1.695,0.584,2.792L239.185,186.2z"/>
		<path fill="#FFFFFF" d="M250.336,188.399l-0.212,8.305c-0.035,1.378-0.351,2.187-1.016,2.554c-0.72,0.405-1.748,0.257-2.909-0.41
			c-1.162-0.669-2.168-1.689-2.848-2.899c-0.628-1.111-0.893-2.253-0.857-3.632l0.212-8.304l1.98,1.138l-0.212,8.305
			c-0.038,1.479,0.538,2.527,1.779,3.241c1.241,0.713,1.853,0.349,1.891-1.13l0.212-8.305L250.336,188.399z"/>
		<path fill="#FFFFFF" d="M253.769,202.807l-1.98-1.139l0.312-12.254l2.957,1.7l1.494,10.752l1.939-8.778l2.983,1.716l-0.312,12.254
			l-1.98-1.139l0.243-9.548l-1.946,8.569l-1.98-1.138l-1.486-10.543L253.769,202.807z"/>
		<path fill="#FFFFFF" d="M264.986,207.125l5.214,2.998l-0.054,2.101l-7.194-4.137l0.312-12.254l6.957,4l-0.054,2.102l-4.977-2.862
			l-0.07,2.774l4.607,2.648l-0.054,2.102l-4.607-2.649L264.986,207.125z"/>
		<path fill="#FFFFFF" d="M273.805,205.73l-0.216,8.473l-1.98-1.139l0.312-12.255l2.034,1.17l3.602,10.531l0.213-8.338l1.98,1.139
			l-0.312,12.254l-1.98-1.139L273.805,205.73z"/>
		<path fill="#FFFFFF" d="M285.322,220.949l-1.98-1.139l0.259-10.153l-2.918-1.678l0.054-2.102l7.71,4.434l-0.054,2.101
			l-2.812-1.617L285.322,220.949z"/>
		<path fill="#FFFFFF" d="M296.735,216.594c0.829,1.654,1.272,3.666,1.224,5.582c-0.044,1.731-0.605,3.217-1.465,3.865
			c-0.86,0.665-1.957,0.598-3.33-0.192c-1.374-0.789-2.441-1.966-3.245-3.588c-0.828-1.653-1.271-3.665-1.226-5.497
			c0.047-1.833,0.579-3.267,1.467-3.95c0.848-0.655,1.971-0.589,3.318,0.186C294.877,213.803,295.92,214.949,296.735,216.594z
			 M290.674,217.903c-0.065,2.589,0.935,4.869,2.545,5.795c1.584,0.911,2.696-0.155,2.761-2.677c0.067-2.656-0.92-4.929-2.543-5.863
			C291.826,214.232,290.74,215.314,290.674,217.903z"/>
		<path fill="#FFFFFF" d="M304.646,223.412c-0.033-1.282-0.716-2.356-1.971-3.078c-1.029-0.592-1.678-0.368-1.701,0.557
			c-0.022,0.891,0.377,1.479,1.781,2.645l1.495,1.235c1.771,1.461,2.512,2.911,2.463,4.844c-0.064,2.505-1.567,3.124-4.05,1.697
			c-2.455-1.412-3.832-3.653-3.883-6.344l1.928,1.108c0.032,1.35,0.766,2.505,2.112,3.279c1.201,0.69,1.957,0.494,1.982-0.532
			c0.025-0.991-0.451-1.743-1.763-2.821l-1.338-1.111c-1.941-1.593-2.671-2.951-2.622-4.85c0.061-2.387,1.429-2.999,3.739-1.67
			c2.429,1.396,3.728,3.559,3.676,6.104L304.646,223.412z"/>
	</g>
	<g opacity="0.6" enable-background="new    ">
		<path fill="#FFFFFF" d="M257.811,87.757l-0.709,2.099l-2.021-1.161l3.732-10.289l2.191,1.26l3.014,14.167l-2.032-1.169
			l-0.57-2.835L257.811,87.757z M259.797,81.904l-1.377,4.07l2.508,1.442L259.797,81.904z"/>
		<path fill="#FFFFFF" d="M271.141,89.706c-0.227-1.648-0.855-2.726-2.005-3.386c-1.558-0.896-2.536,0.179-2.604,2.885
			c-0.068,2.673,0.789,4.77,2.32,5.649c1.229,0.707,2.016,0.256,2.189-1.232l1.928,1.108c-0.192,2.739-1.821,3.593-4.224,2.211
			c-2.68-1.541-4.294-4.959-4.193-8.909c0.102-3.968,1.854-5.467,4.573-3.903c1.439,0.828,2.611,2.2,3.317,3.869
			c0.392,0.924,0.546,1.695,0.585,2.793L271.141,89.706z"/>
		<path fill="#FFFFFF" d="M276.382,100.941l-1.981-1.139l0.312-12.255l5.163,2.968c0.817,0.47,1.419,1.088,1.839,1.911
			c0.447,0.87,0.688,1.913,0.664,2.888c-0.039,1.496-0.605,2.177-1.701,2.092c1.211,1.378,1.26,1.577,1.22,5.222
			c-0.014,0.538,0.099,0.858,0.396,1.251l-0.012,0.454l-2.125-1.222c-0.222-0.726-0.267-1.108-0.237-2.269
			c0.004-0.185,0.012-0.487,0.034-0.799l0.013-0.505c0.025-1.008-0.333-1.658-1.19-2.151l-2.271-1.306L276.382,100.941z
			 M278.948,95.355c0.568,0.327,0.821,0.387,1.052,0.28c0.244-0.115,0.375-0.518,0.391-1.106c0.014-0.571-0.094-1.06-0.325-1.448
			c-0.245-0.396-0.468-0.593-1.036-0.919l-2.389-1.374l-0.081,3.193L278.948,95.355z"/>
		<path fill="#FFFFFF" d="M285.937,104.303l5.215,2.998l-0.054,2.102l-7.195-4.137l0.312-12.255l6.957,4l-0.054,2.102l-4.977-2.861
			l-0.071,2.773l4.607,2.649l-0.054,2.101l-4.606-2.649L285.937,104.303z"/>
		<path fill="#FFFFFF" d="M292.99,98.057l3.763,2.163c1.479,0.85,2.378,1.794,3.014,3.165c0.723,1.593,1.09,3.476,1.041,5.375
			c-0.049,1.916-0.5,3.329-1.28,4.039c-0.688,0.612-1.621,0.518-3.087-0.324l-3.763-2.163L292.99,98.057z M296.494,110.373
			c1.492,0.857,2.264-0.046,2.333-2.735c0.069-2.706-0.636-4.459-2.128-5.316l-1.782-1.025l-0.205,8.052L296.494,110.373z"/>
		<path fill="#FFFFFF" d="M304,116.82l-1.98-1.139l0.312-12.254l1.98,1.139L304,116.82z"/>
		<path fill="#FFFFFF" d="M309.914,120.221l-1.98-1.139l0.259-10.153l-2.918-1.678l0.054-2.101l7.71,4.433l-0.054,2.102
			l-2.812-1.617L309.914,120.221z"/>
		<path fill="#FFFFFF" d="M314.818,120.533l-0.71,2.1l-2.021-1.162l3.732-10.288l2.191,1.26l3.014,14.167l-2.032-1.168l-0.57-2.836
			L314.818,120.533z M316.804,114.682l-1.378,4.069l2.509,1.442L316.804,114.682z"/>
		<path fill="#FFFFFF" d="M322.603,115.082l3.762,2.163c1.479,0.85,2.379,1.794,3.014,3.166c0.724,1.592,1.09,3.475,1.041,5.375
			c-0.049,1.916-0.499,3.329-1.281,4.039c-0.686,0.612-1.62,0.518-3.086-0.324l-3.762-2.163L322.603,115.082z M326.105,127.398
			c1.492,0.857,2.266-0.045,2.334-2.735c0.068-2.707-0.637-4.459-2.129-5.317l-1.782-1.025l-0.205,8.052L326.105,127.398z"/>
		<path fill="#FFFFFF" d="M339.524,126.329c0.829,1.653,1.272,3.666,1.224,5.582c-0.044,1.731-0.604,3.217-1.465,3.865
			c-0.861,0.665-1.957,0.597-3.33-0.192c-1.374-0.79-2.442-1.966-3.245-3.587c-0.827-1.653-1.271-3.666-1.225-5.499
			c0.046-1.833,0.578-3.266,1.466-3.949c0.848-0.656,1.971-0.59,3.318,0.185C337.667,123.539,338.709,124.684,339.524,126.329z
			 M333.464,127.637c-0.066,2.589,0.934,4.87,2.544,5.795c1.584,0.911,2.695-0.155,2.76-2.677c0.067-2.656-0.919-4.929-2.542-5.863
			C334.615,123.967,333.529,125.049,333.464,127.637z"/>
	</g>
	<g opacity="0.6">
		<path fill="#FFFFFF" d="M312.814,75.241c-2.384-6.607-7.152-12.921-12.651-16.102c-7.91-4.571-14.353-0.903-14.375,8.191
			c-0.017,6.672,3.42,14.416,8.39,19.874c1.79,1.973,3.788,3.652,5.891,4.866c3.611,2.086,6.913,2.454,9.438,1.383
			c3.021-1.286,4.923-4.626,4.939-9.573C314.453,81.107,313.86,78.142,312.814,75.241z M307.911,90.423
			c-2.097,0.889-4.836,0.584-7.835-1.148c-1.745-1.008-3.404-2.401-4.891-4.04c-4.125-4.531-6.979-10.96-6.965-16.499
			c0.021-7.55,5.366-10.595,11.934-6.801c4.564,2.642,8.524,7.883,10.503,13.369c0.869,2.408,1.359,4.87,1.354,7.171
			C311.998,86.582,310.418,89.354,307.911,90.423z"/>
		<polygon fill="#FFFFFF" points="291.083,75.079 296.107,82.653 307.835,71.218 306.014,69.303 296.574,78.472 292.961,73.556 		
			"/>
	</g>
</g>
</svg>
